G04*
G04 #@! TF.GenerationSoftware,Altium Limited,Altium Designer,20.1.8 (145)*
G04*
G04 Layer_Physical_Order=4*
G04 Layer_Color=16711680*
%FSLAX25Y25*%
%MOIN*%
G70*
G04*
G04 #@! TF.SameCoordinates,34700BE4-7B1B-4339-AD5F-997C77E8816B*
G04*
G04*
G04 #@! TF.FilePolarity,Positive*
G04*
G01*
G75*
%ADD17C,0.00800*%
%ADD55C,0.01800*%
%ADD57C,0.02400*%
%ADD58C,0.15000*%
%ADD59C,0.02400*%
%ADD60C,0.03937*%
G04:AMPARAMS|DCode=67|XSize=38.98mil|YSize=54.33mil|CornerRadius=9.94mil|HoleSize=0mil|Usage=FLASHONLY|Rotation=270.000|XOffset=0mil|YOffset=0mil|HoleType=Round|Shape=RoundedRectangle|*
%AMROUNDEDRECTD67*
21,1,0.03898,0.03445,0,0,270.0*
21,1,0.01910,0.05433,0,0,270.0*
1,1,0.01988,-0.01723,-0.00955*
1,1,0.01988,-0.01723,0.00955*
1,1,0.01988,0.01723,0.00955*
1,1,0.01988,0.01723,-0.00955*
%
%ADD67ROUNDEDRECTD67*%
G04:AMPARAMS|DCode=68|XSize=37.8mil|YSize=27.95mil|CornerRadius=7.13mil|HoleSize=0mil|Usage=FLASHONLY|Rotation=0.000|XOffset=0mil|YOffset=0mil|HoleType=Round|Shape=RoundedRectangle|*
%AMROUNDEDRECTD68*
21,1,0.03780,0.01370,0,0,0.0*
21,1,0.02354,0.02795,0,0,0.0*
1,1,0.01426,0.01177,-0.00685*
1,1,0.01426,-0.01177,-0.00685*
1,1,0.01426,-0.01177,0.00685*
1,1,0.01426,0.01177,0.00685*
%
%ADD68ROUNDEDRECTD68*%
%ADD69R,0.07480X0.04331*%
%ADD70R,0.03740X0.01378*%
%ADD71R,0.09252X0.12795*%
G04:AMPARAMS|DCode=72|XSize=38.98mil|YSize=54.33mil|CornerRadius=9.94mil|HoleSize=0mil|Usage=FLASHONLY|Rotation=0.000|XOffset=0mil|YOffset=0mil|HoleType=Round|Shape=RoundedRectangle|*
%AMROUNDEDRECTD72*
21,1,0.03898,0.03445,0,0,0.0*
21,1,0.01910,0.05433,0,0,0.0*
1,1,0.01988,0.00955,-0.01723*
1,1,0.01988,-0.00955,-0.01723*
1,1,0.01988,-0.00955,0.01723*
1,1,0.01988,0.00955,0.01723*
%
%ADD72ROUNDEDRECTD72*%
G04:AMPARAMS|DCode=73|XSize=39.37mil|YSize=51.18mil|CornerRadius=9.84mil|HoleSize=0mil|Usage=FLASHONLY|Rotation=270.000|XOffset=0mil|YOffset=0mil|HoleType=Round|Shape=RoundedRectangle|*
%AMROUNDEDRECTD73*
21,1,0.03937,0.03150,0,0,270.0*
21,1,0.01968,0.05118,0,0,270.0*
1,1,0.01968,-0.01575,-0.00984*
1,1,0.01968,-0.01575,0.00984*
1,1,0.01968,0.01575,0.00984*
1,1,0.01968,0.01575,-0.00984*
%
%ADD73ROUNDEDRECTD73*%
%ADD74R,0.03583X0.04803*%
G04:AMPARAMS|DCode=75|XSize=43.7mil|YSize=57.87mil|CornerRadius=9.83mil|HoleSize=0mil|Usage=FLASHONLY|Rotation=90.000|XOffset=0mil|YOffset=0mil|HoleType=Round|Shape=RoundedRectangle|*
%AMROUNDEDRECTD75*
21,1,0.04370,0.03821,0,0,90.0*
21,1,0.02404,0.05787,0,0,90.0*
1,1,0.01967,0.01910,0.01202*
1,1,0.01967,0.01910,-0.01202*
1,1,0.01967,-0.01910,-0.01202*
1,1,0.01967,-0.01910,0.01202*
%
%ADD75ROUNDEDRECTD75*%
%ADD76R,0.02362X0.05315*%
%ADD77R,0.01575X0.05315*%
%ADD78R,0.06634X0.02134*%
%ADD79R,0.12520X0.12520*%
%ADD80R,0.15590X0.15590*%
%ADD81R,0.07480X0.05315*%
%ADD82R,0.04724X0.03937*%
%ADD83R,0.03347X0.04331*%
%ADD84R,0.02953X0.04331*%
%ADD85R,0.04606X0.07087*%
%ADD86R,0.06102X0.05315*%
%ADD87R,0.05906X0.05512*%
G04:AMPARAMS|DCode=88|XSize=73.62mil|YSize=37.4mil|CornerRadius=9.54mil|HoleSize=0mil|Usage=FLASHONLY|Rotation=180.000|XOffset=0mil|YOffset=0mil|HoleType=Round|Shape=RoundedRectangle|*
%AMROUNDEDRECTD88*
21,1,0.07362,0.01833,0,0,180.0*
21,1,0.05455,0.03740,0,0,180.0*
1,1,0.01907,-0.02727,0.00916*
1,1,0.01907,0.02727,0.00916*
1,1,0.01907,0.02727,-0.00916*
1,1,0.01907,-0.02727,-0.00916*
%
%ADD88ROUNDEDRECTD88*%
G04:AMPARAMS|DCode=89|XSize=43.7mil|YSize=57.87mil|CornerRadius=9.83mil|HoleSize=0mil|Usage=FLASHONLY|Rotation=0.000|XOffset=0mil|YOffset=0mil|HoleType=Round|Shape=RoundedRectangle|*
%AMROUNDEDRECTD89*
21,1,0.04370,0.03821,0,0,0.0*
21,1,0.02404,0.05787,0,0,0.0*
1,1,0.01967,0.01202,-0.01910*
1,1,0.01967,-0.01202,-0.01910*
1,1,0.01967,-0.01202,0.01910*
1,1,0.01967,0.01202,0.01910*
%
%ADD89ROUNDEDRECTD89*%
%ADD90R,0.04134X0.06102*%
%ADD91R,0.23622X0.11811*%
G04:AMPARAMS|DCode=92|XSize=73.62mil|YSize=129.92mil|CornerRadius=9.57mil|HoleSize=0mil|Usage=FLASHONLY|Rotation=0.000|XOffset=0mil|YOffset=0mil|HoleType=Round|Shape=RoundedRectangle|*
%AMROUNDEDRECTD92*
21,1,0.07362,0.11078,0,0,0.0*
21,1,0.05448,0.12992,0,0,0.0*
1,1,0.01914,0.02724,-0.05539*
1,1,0.01914,-0.02724,-0.05539*
1,1,0.01914,-0.02724,0.05539*
1,1,0.01914,0.02724,0.05539*
%
%ADD92ROUNDEDRECTD92*%
%ADD93R,0.07087X0.03937*%
G36*
X302999Y155877D02*
X301850Y155529D01*
X300373Y154739D01*
X299079Y153677D01*
X298016Y152383D01*
X297227Y150906D01*
X296741Y149304D01*
X296675Y148638D01*
X305118D01*
Y147638D01*
X306118D01*
Y139195D01*
X306784Y139261D01*
X308387Y139747D01*
X309863Y140536D01*
X311158Y141598D01*
X312220Y142893D01*
X313009Y144369D01*
X313358Y145519D01*
X314158Y145400D01*
Y12080D01*
X313358Y11961D01*
X313009Y13111D01*
X312220Y14588D01*
X311158Y15882D01*
X309863Y16944D01*
X308387Y17733D01*
X306784Y18219D01*
X306118Y18285D01*
Y9843D01*
X305118D01*
Y8843D01*
X296675D01*
X296741Y8176D01*
X297227Y6574D01*
X298016Y5097D01*
X299079Y3803D01*
X300373Y2741D01*
X301850Y1952D01*
X302999Y1603D01*
X302881Y803D01*
X12080D01*
X11961Y1603D01*
X13111Y1952D01*
X14588Y2741D01*
X15882Y3803D01*
X16944Y5097D01*
X17733Y6574D01*
X18219Y8176D01*
X18285Y8843D01*
X9843D01*
Y9843D01*
X8843D01*
Y18285D01*
X8176Y18219D01*
X6574Y17733D01*
X5097Y16944D01*
X3803Y15882D01*
X2741Y14588D01*
X1952Y13111D01*
X1603Y11961D01*
X803Y12080D01*
Y145400D01*
X1603Y145519D01*
X1952Y144369D01*
X2741Y142893D01*
X3803Y141598D01*
X5097Y140536D01*
X6574Y139747D01*
X8176Y139261D01*
X8843Y139195D01*
Y147638D01*
X9843D01*
Y148638D01*
X18285D01*
X18219Y149304D01*
X17733Y150906D01*
X16944Y152383D01*
X15882Y153677D01*
X14588Y154739D01*
X13111Y155529D01*
X11961Y155877D01*
X12080Y156677D01*
X302881D01*
X302999Y155877D01*
D02*
G37*
%LPC*%
G36*
X110108Y151599D02*
X109333Y151444D01*
X108676Y151005D01*
X108527Y150783D01*
X102788D01*
X102788Y150783D01*
X102325Y150691D01*
X101932Y150428D01*
X99661Y148156D01*
X68480D01*
X68332Y148379D01*
X67674Y148818D01*
X66899Y148972D01*
X66123Y148818D01*
X65466Y148379D01*
X65027Y147721D01*
X64136Y147345D01*
X64012Y147412D01*
X63957Y147686D01*
X63518Y148343D01*
X62861Y148782D01*
X62085Y148936D01*
X61310Y148782D01*
X60652Y148343D01*
X60213Y147686D01*
X60059Y146910D01*
X60213Y146135D01*
X60652Y145477D01*
X61310Y145038D01*
X62085Y144884D01*
X62347Y144936D01*
X63725Y143558D01*
X64118Y143296D01*
X64581Y143203D01*
X64581Y143203D01*
X101250D01*
X101250Y143203D01*
X101714Y143296D01*
X102106Y143558D01*
X104144Y145596D01*
X104298Y145492D01*
X105073Y145338D01*
X105849Y145492D01*
X106506Y145931D01*
X106655Y146154D01*
X109901D01*
X115178Y140876D01*
X115571Y140614D01*
X116034Y140522D01*
X116034Y140522D01*
X134627D01*
Y138208D01*
X133213D01*
Y139405D01*
X128587D01*
Y132007D01*
Y124610D01*
X133213D01*
Y125807D01*
X138118D01*
Y126061D01*
X140066D01*
Y125884D01*
X140204Y125194D01*
X140595Y124608D01*
X141181Y124216D01*
X141872Y124079D01*
X142948D01*
Y123114D01*
X142760Y122988D01*
X142321Y122331D01*
X142167Y121555D01*
X142204Y121366D01*
X141575Y120566D01*
X121863D01*
X121863Y120566D01*
X121400Y120474D01*
X121007Y120211D01*
X121007Y120211D01*
X101416Y100620D01*
X86417D01*
X86417Y100620D01*
X85954Y100528D01*
X85561Y100266D01*
X85561Y100266D01*
X62995Y77700D01*
X62536Y78007D01*
X61841Y78145D01*
X59931D01*
X59236Y78007D01*
X58647Y77613D01*
X58253Y77024D01*
X58115Y76329D01*
Y72884D01*
X58253Y72189D01*
X58647Y71599D01*
X59236Y71206D01*
X59675Y71118D01*
Y70122D01*
X59236Y70034D01*
X58647Y69641D01*
X58253Y69051D01*
X58115Y68357D01*
Y64911D01*
X58253Y64216D01*
X58647Y63627D01*
X59236Y63233D01*
X59931Y63095D01*
X61841D01*
X62536Y63233D01*
X63125Y63627D01*
X63519Y64216D01*
X63657Y64911D01*
Y68357D01*
X63519Y69051D01*
X63125Y69641D01*
X62536Y70034D01*
X62097Y70122D01*
Y71118D01*
X62536Y71206D01*
X63125Y71599D01*
X63519Y72189D01*
X63657Y72884D01*
Y75185D01*
X63803Y75214D01*
X64196Y75476D01*
X86919Y98199D01*
X101917D01*
X101917Y98199D01*
X102381Y98291D01*
X102773Y98553D01*
X122364Y118145D01*
X158030D01*
X158673Y117715D01*
X159449Y117560D01*
X160224Y117715D01*
X160882Y118154D01*
X161321Y118811D01*
X161475Y119587D01*
X161321Y120362D01*
X160882Y121019D01*
X160224Y121459D01*
X159449Y121613D01*
X158673Y121459D01*
X158016Y121019D01*
X157713Y120566D01*
X146811D01*
X146182Y121366D01*
X146219Y121555D01*
X146065Y122331D01*
X145626Y122988D01*
X145370Y123159D01*
Y124079D01*
X145693D01*
X146383Y124216D01*
X146969Y124608D01*
X147208Y124965D01*
X147398Y125194D01*
X148179Y125205D01*
X148340Y125098D01*
X149115Y124943D01*
X149891Y125098D01*
X150548Y125537D01*
X150988Y126194D01*
X151142Y126970D01*
X150988Y127745D01*
X150548Y128402D01*
X149891Y128842D01*
X149115Y128996D01*
X148340Y128842D01*
X148220Y128761D01*
X147361Y128979D01*
X146969Y129564D01*
X146475Y129895D01*
X146448Y130331D01*
X146519Y130745D01*
X147122Y131148D01*
X147561Y131804D01*
X147715Y132577D01*
Y132779D01*
X143782D01*
Y133779D01*
X142782D01*
Y137003D01*
X141872D01*
X141098Y136849D01*
X141018Y136796D01*
X140218Y137223D01*
Y140074D01*
X140218Y140074D01*
X140126Y140537D01*
X139863Y140930D01*
X136799Y143995D01*
X136406Y144257D01*
X135943Y144349D01*
X135943Y144349D01*
X117185D01*
X112106Y149428D01*
X112135Y149572D01*
X111981Y150348D01*
X111541Y151005D01*
X110884Y151444D01*
X110108Y151599D01*
D02*
G37*
G36*
X115032Y152692D02*
X114256Y152538D01*
X113599Y152099D01*
X113159Y151441D01*
X113005Y150666D01*
X113159Y149890D01*
X113599Y149233D01*
X114256Y148794D01*
X115032Y148640D01*
X115807Y148794D01*
X116464Y149233D01*
X116904Y149890D01*
X117058Y150666D01*
X116904Y151441D01*
X116464Y152099D01*
X115807Y152538D01*
X115032Y152692D01*
D02*
G37*
G36*
X18285Y146638D02*
X10842D01*
Y139195D01*
X11509Y139261D01*
X13111Y139747D01*
X14588Y140536D01*
X15882Y141598D01*
X16944Y142893D01*
X17733Y144369D01*
X18219Y145972D01*
X18285Y146638D01*
D02*
G37*
G36*
X304118D02*
X296675D01*
X296741Y145972D01*
X297227Y144369D01*
X298016Y142893D01*
X299079Y141598D01*
X300373Y140536D01*
X301850Y139747D01*
X303452Y139261D01*
X304118Y139195D01*
Y146638D01*
D02*
G37*
G36*
X290754Y140616D02*
X287703D01*
Y137959D01*
X290754D01*
Y140616D01*
D02*
G37*
G36*
X285703D02*
X282652D01*
Y137959D01*
X285703D01*
Y140616D01*
D02*
G37*
G36*
X237781Y140370D02*
X234828D01*
Y137614D01*
X237781D01*
Y140370D01*
D02*
G37*
G36*
X232828D02*
X229875D01*
Y137614D01*
X232828D01*
Y140370D01*
D02*
G37*
G36*
X241136Y140616D02*
X238833D01*
Y137073D01*
X241136D01*
Y140616D01*
D02*
G37*
G36*
X126587Y139405D02*
X121961D01*
Y138421D01*
X120713D01*
Y136732D01*
X118713D01*
Y138421D01*
X116843D01*
X116843Y138421D01*
X116126Y138620D01*
X115958Y138732D01*
X115495Y138824D01*
X115495Y138824D01*
X93073D01*
X93073Y138824D01*
X92609Y138732D01*
X92217Y138470D01*
X92217Y138469D01*
X91516Y137769D01*
X91253Y137376D01*
X91172Y136969D01*
X82992D01*
Y131642D01*
X81693D01*
X81034Y131511D01*
X80476Y131138D01*
X67201Y117862D01*
X49925D01*
X37193Y130595D01*
X36635Y130967D01*
X35976Y131098D01*
X35118D01*
Y136969D01*
X21024D01*
Y122874D01*
X35118D01*
Y126672D01*
X35918Y127003D01*
X47996Y114925D01*
X48554Y114552D01*
X49213Y114421D01*
X63240D01*
Y104242D01*
X63201Y104234D01*
X62543Y103795D01*
X62104Y103138D01*
X61950Y102362D01*
X62104Y101587D01*
X62543Y100929D01*
X63201Y100490D01*
X63976Y100336D01*
X64752Y100490D01*
X65409Y100929D01*
X65848Y101587D01*
X65902Y101854D01*
X66177Y102130D01*
X66550Y102688D01*
X66681Y103347D01*
Y114421D01*
X67913D01*
X68572Y114552D01*
X69130Y114925D01*
X82192Y127987D01*
X82992Y127685D01*
Y122874D01*
X97087D01*
Y136403D01*
X104724D01*
Y130905D01*
X113544D01*
X114873Y129577D01*
X114873Y129577D01*
X115266Y129314D01*
X115505Y129267D01*
X115570Y128494D01*
X115570Y128494D01*
X115107Y128402D01*
X114714Y128139D01*
X114714Y128139D01*
X113544Y126969D01*
X104724D01*
Y121063D01*
X113779D01*
Y123780D01*
X116072Y126072D01*
X117055D01*
Y125807D01*
X121961D01*
Y124610D01*
X126587D01*
Y132007D01*
Y139405D01*
D02*
G37*
G36*
X145693Y137003D02*
X144782D01*
Y134779D01*
X147715D01*
Y134981D01*
X147561Y135755D01*
X147122Y136411D01*
X146466Y136849D01*
X145693Y137003D01*
D02*
G37*
G36*
X258037Y140616D02*
X256364D01*
Y137451D01*
Y134285D01*
X258037D01*
X258466Y133663D01*
Y124078D01*
X257844Y123456D01*
X257582Y123508D01*
X256806Y123354D01*
X256149Y122915D01*
X255710Y122258D01*
X255556Y121482D01*
X255655Y120984D01*
X255170Y120184D01*
X253534D01*
X252987Y120984D01*
X253059Y121349D01*
X252905Y122125D01*
X252466Y122782D01*
X252244Y122930D01*
Y133671D01*
X252691Y134285D01*
X254364D01*
Y137451D01*
Y140616D01*
X252691D01*
Y140403D01*
X245439D01*
Y140616D01*
X243136D01*
Y136073D01*
Y131529D01*
X245439D01*
Y134498D01*
X249822D01*
Y122930D01*
X249600Y122782D01*
X249161Y122125D01*
X249007Y121349D01*
X249079Y120984D01*
X248532Y120184D01*
X235574D01*
X235425Y120406D01*
X235203Y120555D01*
Y125591D01*
X237568D01*
Y132146D01*
X237781Y132858D01*
X237781Y133389D01*
Y135614D01*
X229875D01*
Y133389D01*
X229875Y132858D01*
X230088Y132146D01*
Y125591D01*
X232782D01*
Y120555D01*
X232560Y120406D01*
X232120Y119749D01*
X231966Y118973D01*
X232120Y118198D01*
X232560Y117541D01*
X233217Y117101D01*
X233992Y116947D01*
X234768Y117101D01*
X235425Y117541D01*
X235574Y117763D01*
X260558D01*
X260558Y117763D01*
X261022Y117855D01*
X261414Y118117D01*
X264882Y121584D01*
X264882Y121584D01*
X265144Y121977D01*
X265236Y122441D01*
Y134498D01*
X267056D01*
Y122768D01*
X266834Y122619D01*
X266394Y121962D01*
X266240Y121186D01*
X266394Y120411D01*
X266834Y119754D01*
X267491Y119314D01*
X268267Y119160D01*
X269042Y119314D01*
X269699Y119754D01*
X270139Y120411D01*
X270293Y121186D01*
X270139Y121962D01*
X269699Y122619D01*
X269477Y122768D01*
Y134498D01*
X271476D01*
Y115708D01*
X266231Y110463D01*
X260224D01*
X260076Y110685D01*
X259418Y111124D01*
X258643Y111278D01*
X257867Y111124D01*
X257210Y110685D01*
X256771Y110027D01*
X256616Y109252D01*
X256771Y108476D01*
X257210Y107819D01*
X257867Y107380D01*
X258643Y107226D01*
X259418Y107380D01*
X260076Y107819D01*
X260224Y108041D01*
X266732D01*
X266732Y108041D01*
X267196Y108133D01*
X267588Y108396D01*
X273543Y114351D01*
X273543Y114351D01*
X273805Y114743D01*
X273898Y115207D01*
X273898Y115207D01*
Y134498D01*
X279478D01*
Y140403D01*
X258037D01*
Y140616D01*
D02*
G37*
G36*
X290754Y135959D02*
X287703D01*
Y133301D01*
X290754D01*
Y135959D01*
D02*
G37*
G36*
X241136Y135073D02*
X238833D01*
Y131529D01*
X241136D01*
Y135073D01*
D02*
G37*
G36*
X67850Y138716D02*
X60055D01*
Y130921D01*
X67850D01*
Y138716D01*
D02*
G37*
G36*
X58055D02*
X50260D01*
Y130921D01*
X58055D01*
Y138716D01*
D02*
G37*
G36*
X285703Y135959D02*
X282652D01*
Y133909D01*
X281912Y133762D01*
X281255Y133323D01*
X280815Y132665D01*
X280661Y131890D01*
X280815Y131114D01*
X281255Y130457D01*
X281912Y130018D01*
X282687Y129863D01*
X283463Y130018D01*
X284120Y130457D01*
X284560Y131114D01*
X284714Y131890D01*
X284592Y132501D01*
X285023Y133301D01*
X285703D01*
Y135959D01*
D02*
G37*
G36*
X198967Y133916D02*
X198192Y133762D01*
X197534Y133323D01*
X197095Y132665D01*
X196941Y131890D01*
X197095Y131114D01*
X197534Y130457D01*
X198192Y130018D01*
X198967Y129863D01*
X199742Y130018D01*
X200400Y130457D01*
X200839Y131114D01*
X200993Y131890D01*
X200839Y132665D01*
X200400Y133323D01*
X199742Y133762D01*
X198967Y133916D01*
D02*
G37*
G36*
X71902D02*
X71126Y133762D01*
X70469Y133323D01*
X70030Y132665D01*
X69875Y131890D01*
X70030Y131114D01*
X70469Y130457D01*
X71126Y130018D01*
X71902Y129863D01*
X72677Y130018D01*
X73335Y130457D01*
X73774Y131114D01*
X73928Y131890D01*
X73774Y132665D01*
X73335Y133323D01*
X72677Y133762D01*
X71902Y133916D01*
D02*
G37*
G36*
X240685Y128995D02*
X239909Y128841D01*
X239252Y128401D01*
X238813Y127744D01*
X238658Y126969D01*
X238813Y126193D01*
X239252Y125536D01*
X239909Y125096D01*
X240685Y124942D01*
X241460Y125096D01*
X242118Y125536D01*
X242557Y126193D01*
X242711Y126969D01*
X242557Y127744D01*
X242118Y128401D01*
X241460Y128841D01*
X240685Y128995D01*
D02*
G37*
G36*
X67850Y128921D02*
X60055D01*
Y121126D01*
X67850D01*
Y128921D01*
D02*
G37*
G36*
X58055D02*
X50260D01*
Y121126D01*
X58055D01*
Y128921D01*
D02*
G37*
G36*
X181595Y121613D02*
X180819Y121459D01*
X180162Y121019D01*
X179722Y120362D01*
X179568Y119587D01*
X179722Y118811D01*
X180162Y118154D01*
X180819Y117715D01*
X181595Y117560D01*
X182370Y117715D01*
X183027Y118154D01*
X183467Y118811D01*
X183621Y119587D01*
X183467Y120362D01*
X183027Y121019D01*
X182370Y121459D01*
X181595Y121613D01*
D02*
G37*
G36*
X156801Y117220D02*
X154892D01*
X154197Y117082D01*
X153607Y116688D01*
X153214Y116099D01*
X153102Y115538D01*
X147052D01*
X147052Y115538D01*
X146588Y115446D01*
X146196Y115183D01*
X139597Y108584D01*
X139334Y108192D01*
X139242Y107728D01*
X139242Y107728D01*
Y105062D01*
X138690Y104952D01*
X138194Y104621D01*
X137863Y104124D01*
X137746Y103539D01*
Y102170D01*
X137863Y101584D01*
X138194Y101088D01*
X138690Y100756D01*
X139276Y100640D01*
X141630D01*
X142215Y100756D01*
X142711Y101088D01*
X143043Y101584D01*
X143159Y102170D01*
Y103539D01*
X143043Y104124D01*
X142711Y104621D01*
X142215Y104952D01*
X141663Y105062D01*
Y107227D01*
X147553Y113117D01*
X153075D01*
Y111959D01*
X153214Y111263D01*
X153607Y110674D01*
X153690Y110619D01*
Y109657D01*
X153607Y109601D01*
X153214Y109012D01*
X153075Y108317D01*
Y107805D01*
X151519D01*
X151507Y107865D01*
X151176Y108361D01*
X150680Y108693D01*
X150094Y108809D01*
X147740D01*
X147155Y108693D01*
X146659Y108361D01*
X146327Y107865D01*
X146211Y107279D01*
Y105910D01*
X146327Y105324D01*
X146659Y104828D01*
X147155Y104497D01*
X147740Y104380D01*
X150094D01*
X150680Y104497D01*
X151176Y104828D01*
X151507Y105324D01*
X151519Y105384D01*
X153075D01*
Y104872D01*
X153214Y104177D01*
X153607Y103588D01*
X153770Y103479D01*
Y102525D01*
X153607Y102416D01*
X153214Y101827D01*
X153075Y101132D01*
Y97687D01*
X153214Y96992D01*
X153607Y96403D01*
X154197Y96009D01*
X154892Y95871D01*
X156801D01*
X157496Y96009D01*
X158086Y96403D01*
X158479Y96992D01*
X158618Y97687D01*
Y101132D01*
X158479Y101827D01*
X158086Y102416D01*
X157923Y102525D01*
Y103479D01*
X158086Y103588D01*
X158479Y104177D01*
X158618Y104872D01*
Y108317D01*
X158479Y109012D01*
X158086Y109601D01*
X158003Y109657D01*
Y110619D01*
X158086Y110674D01*
X158479Y111263D01*
X158618Y111959D01*
Y115404D01*
X158479Y116099D01*
X158086Y116688D01*
X157496Y117082D01*
X156801Y117220D01*
D02*
G37*
G36*
X98016Y113184D02*
X97814D01*
X97040Y113031D01*
X96384Y112592D01*
X95981Y111989D01*
X95568Y111918D01*
X95132Y111944D01*
X94801Y112439D01*
X94216Y112830D01*
X93525Y112968D01*
X91121D01*
X90430Y112830D01*
X89845Y112439D01*
X89453Y111853D01*
X89316Y111162D01*
Y110972D01*
X87616D01*
X87390Y111124D01*
X86614Y111278D01*
X85839Y111124D01*
X85181Y110685D01*
X84742Y110027D01*
X84588Y109252D01*
X84742Y108476D01*
X85181Y107819D01*
X85839Y107380D01*
X86614Y107226D01*
X87390Y107380D01*
X87616Y107531D01*
X89316D01*
Y107342D01*
X89453Y106651D01*
X89845Y106065D01*
X90430Y105674D01*
X91121Y105536D01*
X93525D01*
X94216Y105674D01*
X94801Y106065D01*
X95132Y106560D01*
X95568Y106586D01*
X95981Y106515D01*
X96384Y105912D01*
X97040Y105473D01*
X97814Y105319D01*
X98016D01*
Y109252D01*
Y113184D01*
D02*
G37*
G36*
X164006Y117220D02*
X162096D01*
X161401Y117082D01*
X160812Y116688D01*
X160418Y116099D01*
X160280Y115404D01*
Y111959D01*
X160418Y111263D01*
X160812Y110674D01*
X160895Y110619D01*
Y109657D01*
X160812Y109601D01*
X160418Y109012D01*
X160280Y108317D01*
Y104872D01*
X160418Y104177D01*
X160812Y103588D01*
X160777Y102649D01*
X160659Y102570D01*
X160218Y101910D01*
X160063Y101132D01*
Y100409D01*
X166039D01*
Y101132D01*
X165884Y101910D01*
X165444Y102570D01*
X165325Y102649D01*
X165290Y103588D01*
X165684Y104177D01*
X165822Y104872D01*
Y105384D01*
X171320D01*
X171468Y105162D01*
X172125Y104722D01*
X172901Y104568D01*
X173676Y104722D01*
X174334Y105162D01*
X174773Y105819D01*
X174927Y106595D01*
X174773Y107370D01*
X174334Y108027D01*
X173676Y108467D01*
X172901Y108621D01*
X172125Y108467D01*
X171468Y108027D01*
X171320Y107805D01*
X165822D01*
Y108317D01*
X165684Y109012D01*
X165290Y109601D01*
X165208Y109657D01*
Y110619D01*
X165290Y110674D01*
X165684Y111263D01*
X165822Y111959D01*
Y112470D01*
X166720D01*
X166869Y112248D01*
X167526Y111809D01*
X168301Y111655D01*
X169077Y111809D01*
X169734Y112248D01*
X170174Y112906D01*
X170328Y113681D01*
X170174Y114456D01*
X169734Y115114D01*
X169077Y115553D01*
X168301Y115707D01*
X167526Y115553D01*
X166869Y115114D01*
X166720Y114892D01*
X165822D01*
Y115404D01*
X165684Y116099D01*
X165290Y116688D01*
X164701Y117082D01*
X164006Y117220D01*
D02*
G37*
G36*
X290541Y115994D02*
X284242D01*
Y110482D01*
X290541D01*
Y115994D01*
D02*
G37*
G36*
X100217Y113184D02*
X100016D01*
Y110252D01*
X102240D01*
Y111162D01*
X102086Y111936D01*
X101647Y112592D01*
X100991Y113031D01*
X100217Y113184D01*
D02*
G37*
G36*
X126953Y110182D02*
X126042D01*
X125268Y110028D01*
X124612Y109589D01*
X123663D01*
X123007Y110028D01*
X122233Y110182D01*
X121323D01*
Y106958D01*
X120323D01*
Y105958D01*
X116390D01*
Y105756D01*
X116544Y104982D01*
X116983Y104326D01*
X117586Y103923D01*
X117657Y103510D01*
X117631Y103074D01*
X117136Y102743D01*
X116744Y102158D01*
X116607Y101467D01*
Y99063D01*
X116744Y98372D01*
X117136Y97786D01*
X117721Y97395D01*
X118412Y97258D01*
X121856D01*
X122303Y96487D01*
X122144Y96248D01*
X121989Y95472D01*
X122144Y94697D01*
X122583Y94040D01*
X122919Y93815D01*
X122954Y92905D01*
X122953Y92903D01*
X122719Y92747D01*
X122388Y92252D01*
X121952Y92226D01*
X121538Y92297D01*
X121135Y92900D01*
X120480Y93338D01*
X119706Y93492D01*
X119504D01*
Y89560D01*
X117504D01*
Y93492D01*
X117302D01*
X116528Y93338D01*
X115872Y92900D01*
X115434Y92244D01*
X115280Y91470D01*
Y89431D01*
X114480Y89260D01*
X114155Y89746D01*
X113498Y90186D01*
X113095Y90266D01*
X112926Y91115D01*
X113244Y91328D01*
X113683Y91985D01*
X113837Y92760D01*
X113683Y93536D01*
X113244Y94193D01*
X112586Y94633D01*
X111811Y94787D01*
X111036Y94633D01*
X110378Y94193D01*
X110136Y93831D01*
X102959D01*
X102811Y94054D01*
X102153Y94493D01*
X101378Y94647D01*
X100602Y94493D01*
X99945Y94054D01*
X99506Y93396D01*
X99352Y92621D01*
X99506Y91845D01*
X99945Y91188D01*
X100602Y90749D01*
X101378Y90594D01*
X102153Y90749D01*
X102811Y91188D01*
X102959Y91410D01*
X110323D01*
X110378Y91328D01*
X111036Y90888D01*
X111438Y90808D01*
X111607Y89959D01*
X111290Y89746D01*
X110850Y89089D01*
X110696Y88314D01*
X110850Y87538D01*
X111290Y86881D01*
X111354Y86838D01*
X111111Y86038D01*
X106603D01*
X106603Y86038D01*
X106139Y85945D01*
X105746Y85683D01*
X105746Y85683D01*
X100522Y80458D01*
X100259Y80066D01*
X100167Y79602D01*
X100167Y79602D01*
Y75113D01*
X99945Y74964D01*
X99506Y74307D01*
X99352Y73532D01*
X99506Y72756D01*
X99945Y72099D01*
X100602Y71659D01*
X101378Y71505D01*
X102153Y71659D01*
X102811Y72099D01*
X103250Y72756D01*
X103404Y73532D01*
X103250Y74307D01*
X102811Y74964D01*
X102589Y75113D01*
Y79101D01*
X107104Y83616D01*
X121693D01*
X122115Y82816D01*
X121989Y82185D01*
X122144Y81410D01*
X122518Y80849D01*
X122273Y80265D01*
X121471Y80270D01*
X121135Y80772D01*
X120480Y81210D01*
X119706Y81364D01*
X119504D01*
Y77432D01*
X117504D01*
Y81364D01*
X117302D01*
X116528Y81210D01*
X115872Y80772D01*
X115434Y80116D01*
X115291Y79399D01*
X115139Y79312D01*
X114480Y79173D01*
X114266Y79494D01*
X113610Y79933D01*
X112836Y80087D01*
X111925D01*
Y76863D01*
X110925D01*
Y75863D01*
X106993D01*
Y75661D01*
X107147Y74887D01*
X107585Y74231D01*
X108188Y73828D01*
X108259Y73415D01*
X108233Y72979D01*
X107738Y72648D01*
X107347Y72062D01*
X107209Y71372D01*
Y68968D01*
X107347Y68277D01*
X107738Y67691D01*
X108324Y67300D01*
X109015Y67163D01*
X109112D01*
X109231Y67035D01*
X109492Y66264D01*
X109053Y65606D01*
X108899Y64831D01*
X109053Y64055D01*
X109078Y64018D01*
X108650Y63218D01*
X101877D01*
X101728Y63441D01*
X101071Y63880D01*
X100295Y64034D01*
X99520Y63880D01*
X98862Y63441D01*
X98423Y62783D01*
X98269Y62008D01*
X98423Y61232D01*
X98862Y60575D01*
X99520Y60136D01*
X100295Y59982D01*
X101071Y60136D01*
X101728Y60575D01*
X101877Y60797D01*
X125000D01*
X125000Y60797D01*
X125463Y60889D01*
X125856Y61152D01*
X128574Y63870D01*
X131535D01*
X131684Y63648D01*
X132341Y63208D01*
X133116Y63054D01*
X133892Y63208D01*
X134549Y63648D01*
X134989Y64305D01*
X135143Y65080D01*
X134989Y65856D01*
X134549Y66513D01*
X133892Y66952D01*
X133116Y67107D01*
X132341Y66952D01*
X131684Y66513D01*
X131535Y66291D01*
X128073D01*
X128072Y66291D01*
X127998Y66276D01*
X127686Y67030D01*
X127829Y67125D01*
X128267Y67781D01*
X128421Y68555D01*
Y69465D01*
X126197D01*
Y66533D01*
X126399D01*
X126457Y66544D01*
X126584Y66433D01*
X126625Y65345D01*
X124498Y63218D01*
X120976D01*
X120548Y64018D01*
X120573Y64055D01*
X120727Y64831D01*
X120573Y65606D01*
X120278Y66048D01*
X120370Y66695D01*
X120519Y66968D01*
X120982Y67278D01*
X121313Y67773D01*
X121749Y67799D01*
X122162Y67728D01*
X122565Y67125D01*
X123221Y66686D01*
X123995Y66533D01*
X124197D01*
Y70465D01*
X125197D01*
Y71465D01*
X128421D01*
Y72376D01*
X128267Y73149D01*
X128023Y73515D01*
X127675Y74245D01*
X128067Y74830D01*
X128204Y75521D01*
Y76545D01*
X129426D01*
X129574Y76323D01*
X130231Y75884D01*
X130863Y75758D01*
X130870Y75750D01*
X131130Y75272D01*
X131215Y74955D01*
X130952Y74562D01*
X130798Y73786D01*
X130952Y73011D01*
X131392Y72354D01*
X132049Y71914D01*
X132824Y71760D01*
X133600Y71914D01*
X134257Y72354D01*
X134696Y73011D01*
X134851Y73786D01*
X134696Y74562D01*
X134257Y75219D01*
X133600Y75659D01*
X132968Y75784D01*
X132961Y75792D01*
X132701Y76270D01*
X132616Y76587D01*
X132879Y76980D01*
X133033Y77756D01*
X132879Y78531D01*
X132440Y79189D01*
X131782Y79628D01*
X131007Y79782D01*
X130231Y79628D01*
X129574Y79189D01*
X129426Y78967D01*
X128204D01*
Y79342D01*
X128067Y80033D01*
X127675Y80619D01*
X127090Y81010D01*
X126582Y81111D01*
X126576Y81113D01*
X126191Y81558D01*
X125995Y81947D01*
X126042Y82185D01*
X125917Y82816D01*
X126339Y83616D01*
X134648D01*
X135355Y83222D01*
X135509Y82446D01*
X135949Y81789D01*
X136606Y81350D01*
X137381Y81195D01*
X137957Y81310D01*
X138269Y80556D01*
X138194Y80507D01*
X137863Y80010D01*
X137746Y79425D01*
Y78055D01*
X137863Y77470D01*
X138194Y76974D01*
X138690Y76642D01*
X139276Y76526D01*
X141630D01*
X142215Y76642D01*
X142711Y76974D01*
X143043Y77470D01*
X143159Y78055D01*
Y79425D01*
X143043Y80010D01*
X142711Y80507D01*
X142215Y80838D01*
X141663Y80948D01*
Y83113D01*
X147553Y89003D01*
X153075D01*
Y88828D01*
X153214Y88134D01*
X153607Y87544D01*
X154197Y87151D01*
X154892Y87012D01*
X156801D01*
X157496Y87151D01*
X158086Y87544D01*
X158479Y88134D01*
X158618Y88828D01*
Y92274D01*
X158479Y92969D01*
X158086Y93558D01*
X157496Y93952D01*
X156801Y94090D01*
X154892D01*
X154197Y93952D01*
X153607Y93558D01*
X153214Y92969D01*
X153075Y92274D01*
Y91424D01*
X147052D01*
X147052Y91424D01*
X146588Y91332D01*
X146196Y91069D01*
X139778Y84652D01*
X139008Y84609D01*
X138844Y84648D01*
X138775Y84681D01*
X138157Y85094D01*
X137381Y85248D01*
X137031Y85179D01*
X136527Y85683D01*
X136134Y85945D01*
X135671Y86038D01*
X135671Y86038D01*
X128413D01*
X127986Y86838D01*
X128067Y86958D01*
X128204Y87649D01*
Y88349D01*
X133456D01*
X133506Y88273D01*
X134164Y87833D01*
X134939Y87679D01*
X135715Y87833D01*
X136372Y88273D01*
X136811Y88930D01*
X136966Y89706D01*
X136811Y90481D01*
X136372Y91138D01*
X135715Y91578D01*
X134939Y91732D01*
X134164Y91578D01*
X133506Y91138D01*
X133260Y90770D01*
X128204D01*
Y91470D01*
X128067Y92161D01*
X127675Y92747D01*
X127090Y93138D01*
X126399Y93275D01*
X125745D01*
X125514Y93870D01*
X125472Y94075D01*
X125888Y94697D01*
X125941Y94965D01*
X127236Y96260D01*
X127609Y96818D01*
X127697Y97258D01*
X129863D01*
X130554Y97395D01*
X131140Y97786D01*
X131531Y98372D01*
X131669Y99063D01*
Y101467D01*
X131531Y102158D01*
X131140Y102743D01*
X130645Y103074D01*
X130619Y103510D01*
X130690Y103923D01*
X131293Y104326D01*
X131731Y104982D01*
X131885Y105756D01*
Y105958D01*
X127953D01*
Y106958D01*
X126953D01*
Y110182D01*
D02*
G37*
G36*
X129863D02*
X128953D01*
Y107958D01*
X131885D01*
Y108160D01*
X131731Y108933D01*
X131293Y109589D01*
X130637Y110028D01*
X129863Y110182D01*
D02*
G37*
G36*
X119323D02*
X118412D01*
X117639Y110028D01*
X116983Y109589D01*
X116544Y108933D01*
X116390Y108160D01*
Y107958D01*
X119323D01*
Y110182D01*
D02*
G37*
G36*
X102240Y108252D02*
X100016D01*
Y105319D01*
X100217D01*
X100991Y105473D01*
X101647Y105912D01*
X102086Y106568D01*
X102240Y107342D01*
Y108252D01*
D02*
G37*
G36*
X218835Y107670D02*
X218059Y107515D01*
X217402Y107076D01*
X216963Y106419D01*
X216808Y105643D01*
X216963Y104868D01*
X217402Y104210D01*
X218059Y103771D01*
X218835Y103617D01*
X219610Y103771D01*
X220267Y104210D01*
X220707Y104868D01*
X220861Y105643D01*
X220707Y106419D01*
X220267Y107076D01*
X219610Y107515D01*
X218835Y107670D01*
D02*
G37*
G36*
X243489Y113819D02*
X243489Y113819D01*
X202272D01*
X201809Y113727D01*
X201416Y113464D01*
X201416Y113464D01*
X199178Y111226D01*
X198916Y111278D01*
X198140Y111124D01*
X197483Y110685D01*
X197044Y110027D01*
X196889Y109252D01*
X197044Y108476D01*
X197483Y107819D01*
X198140Y107380D01*
X198337Y106553D01*
X198294Y106485D01*
X197975Y106158D01*
X197325Y106029D01*
X196667Y105590D01*
X196228Y104932D01*
X196074Y104157D01*
X196228Y103381D01*
X196667Y102724D01*
X197325Y102285D01*
X198100Y102130D01*
X198875Y102285D01*
X199533Y102724D01*
X199972Y103381D01*
X200126Y104157D01*
X200074Y104419D01*
X201088Y105433D01*
X211427D01*
X212982Y103877D01*
X212984Y103859D01*
X212694Y103035D01*
X212359Y102968D01*
X211774Y102577D01*
X211382Y101991D01*
X211245Y101300D01*
Y98897D01*
X211382Y98206D01*
X211774Y97620D01*
X212268Y97290D01*
X212295Y96853D01*
X212223Y96440D01*
X211620Y96037D01*
X211182Y95381D01*
X211087Y94903D01*
X210271D01*
X210176Y95381D01*
X209738Y96037D01*
X209135Y96440D01*
X209064Y96853D01*
X209090Y97290D01*
X209585Y97620D01*
X209976Y98206D01*
X210113Y98897D01*
Y101300D01*
X209976Y101991D01*
X209585Y102577D01*
X208999Y102968D01*
X208308Y103105D01*
X204487D01*
X203796Y102968D01*
X203211Y102577D01*
X202819Y101991D01*
X202805Y101919D01*
X202387Y101309D01*
X201924Y101217D01*
X201531Y100954D01*
X201531Y100954D01*
X200608Y100031D01*
X200346Y100084D01*
X199571Y99929D01*
X198913Y99490D01*
X198474Y98833D01*
X198320Y98057D01*
X198474Y97282D01*
X198913Y96624D01*
X199571Y96185D01*
X200346Y96031D01*
X201121Y96185D01*
X201779Y96624D01*
X202218Y97282D01*
X202277Y97578D01*
X203078Y97737D01*
X203192Y97648D01*
X203211Y97620D01*
X203332Y97539D01*
X203708Y97246D01*
X203732Y96853D01*
X203660Y96440D01*
X203057Y96037D01*
X202619Y95381D01*
X202465Y94607D01*
Y94406D01*
X206398D01*
Y93405D01*
X207398D01*
Y90182D01*
X208308D01*
X209082Y90336D01*
X209738Y90774D01*
X210176Y91430D01*
X210271Y91908D01*
X211087D01*
X211182Y91430D01*
X211620Y90774D01*
X212276Y90336D01*
X213050Y90182D01*
X213961D01*
Y93405D01*
X214961D01*
Y94406D01*
X218893D01*
Y94607D01*
X218739Y95381D01*
X218301Y96037D01*
X217698Y96440D01*
X217627Y96853D01*
X217653Y97290D01*
X218148Y97620D01*
X218539Y98206D01*
X218676Y98897D01*
Y101300D01*
X218539Y101991D01*
X218148Y102577D01*
X217562Y102968D01*
X216871Y103105D01*
X216171D01*
Y103611D01*
X216079Y104075D01*
X215817Y104467D01*
X215817Y104467D01*
X212785Y107500D01*
X212392Y107762D01*
X211929Y107854D01*
X211929Y107854D01*
X201334D01*
X201139Y108076D01*
X200823Y108654D01*
X200942Y109252D01*
X200890Y109514D01*
X202773Y111398D01*
X229095D01*
X229337Y110598D01*
X229070Y110419D01*
X228631Y109762D01*
X228477Y108986D01*
X228529Y108724D01*
X223695Y103891D01*
X223433Y103498D01*
X223359Y103125D01*
X222096D01*
X221401Y102987D01*
X220812Y102594D01*
X220418Y102004D01*
X220280Y101309D01*
Y99399D01*
X220418Y98704D01*
X220812Y98115D01*
X221401Y97721D01*
X222096Y97583D01*
X225541D01*
X226237Y97721D01*
X226826Y98115D01*
X227220Y98704D01*
X227358Y99399D01*
Y101309D01*
X227220Y102004D01*
X226826Y102594D01*
X226801Y103572D01*
X230241Y107012D01*
X230503Y106960D01*
X231279Y107114D01*
X231582Y107317D01*
X231604Y107331D01*
X232181Y106755D01*
X232165Y106731D01*
X231956Y106419D01*
X231802Y105643D01*
X231854Y105381D01*
X230935Y104463D01*
X230673Y104070D01*
X230581Y103606D01*
X230020Y103116D01*
X229374Y102987D01*
X228784Y102594D01*
X228391Y102004D01*
X228253Y101309D01*
Y99399D01*
X228391Y98704D01*
X228784Y98115D01*
X229374Y97721D01*
X230069Y97583D01*
X233514D01*
X234209Y97721D01*
X234798Y98115D01*
X235192Y98704D01*
X235330Y99399D01*
Y101309D01*
X235192Y102004D01*
X234798Y102594D01*
X234336Y102902D01*
X234332Y103422D01*
X234421Y103735D01*
X234604Y103771D01*
X235261Y104210D01*
X235700Y104868D01*
X235854Y105643D01*
X235700Y106419D01*
X235261Y107076D01*
X234604Y107515D01*
X233828Y107670D01*
X233053Y107515D01*
X232749Y107313D01*
X232728Y107298D01*
X232151Y107875D01*
X232167Y107898D01*
X232375Y108211D01*
X232530Y108986D01*
X232375Y109762D01*
X231936Y110419D01*
X231669Y110598D01*
X231912Y111398D01*
X242987D01*
X250910Y103475D01*
X250910Y103475D01*
X251303Y103212D01*
X251766Y103120D01*
X251766Y103120D01*
X299600D01*
X299748Y102898D01*
X300406Y102459D01*
X301181Y102304D01*
X301957Y102459D01*
X302614Y102898D01*
X303053Y103555D01*
X303207Y104331D01*
X303053Y105106D01*
X302614Y105764D01*
X301957Y106203D01*
X301181Y106357D01*
X300406Y106203D01*
X299748Y105764D01*
X299600Y105541D01*
X252268D01*
X244345Y113464D01*
X243952Y113727D01*
X243489Y113819D01*
D02*
G37*
G36*
X150094Y101545D02*
X149917D01*
Y100114D01*
X151778D01*
X151708Y100467D01*
X151329Y101034D01*
X150763Y101412D01*
X150094Y101545D01*
D02*
G37*
G36*
X147917D02*
X147740D01*
X147072Y101412D01*
X146505Y101034D01*
X146127Y100467D01*
X146057Y100114D01*
X147917D01*
Y101545D01*
D02*
G37*
G36*
X151778Y98114D02*
X149917D01*
Y96683D01*
X150094D01*
X150763Y96816D01*
X151329Y97194D01*
X151708Y97761D01*
X151778Y98114D01*
D02*
G37*
G36*
X147917D02*
X146057D01*
X146127Y97761D01*
X146505Y97194D01*
X147072Y96816D01*
X147740Y96683D01*
X147917D01*
Y98114D01*
D02*
G37*
G36*
X290541Y101427D02*
X284242D01*
Y95915D01*
X290541D01*
Y101427D01*
D02*
G37*
G36*
X166039Y98409D02*
X164051D01*
Y95663D01*
X164784Y95809D01*
X165444Y96249D01*
X165884Y96909D01*
X166039Y97687D01*
Y98409D01*
D02*
G37*
G36*
X162051D02*
X160063D01*
Y97687D01*
X160218Y96909D01*
X160659Y96249D01*
X161318Y95809D01*
X162051Y95663D01*
Y98409D01*
D02*
G37*
G36*
X239293Y97300D02*
X238517Y97145D01*
X237860Y96706D01*
X237421Y96049D01*
X237266Y95273D01*
X237329Y94958D01*
X236797Y94360D01*
X235279D01*
X235192Y94800D01*
X234798Y95389D01*
X234209Y95783D01*
X233514Y95921D01*
X230069D01*
X229374Y95783D01*
X228784Y95389D01*
X228391Y94800D01*
X228303Y94360D01*
X227307D01*
X227220Y94800D01*
X226826Y95389D01*
X226237Y95783D01*
X225541Y95921D01*
X222096D01*
X221401Y95783D01*
X220812Y95389D01*
X220418Y94800D01*
X220280Y94104D01*
Y92195D01*
X220418Y91500D01*
X220812Y90910D01*
X221401Y90517D01*
X222096Y90378D01*
X225541D01*
X226237Y90517D01*
X226826Y90910D01*
X227220Y91500D01*
X227307Y91939D01*
X228303D01*
X228391Y91500D01*
X228784Y90910D01*
X229374Y90517D01*
X230069Y90378D01*
X233514D01*
X234209Y90517D01*
X234798Y90910D01*
X235192Y91500D01*
X235279Y91939D01*
X237343D01*
X237343Y91939D01*
X237806Y92031D01*
X238199Y92294D01*
X239175Y93270D01*
X239293Y93247D01*
X240068Y93401D01*
X240726Y93841D01*
X241165Y94498D01*
X241319Y95273D01*
X241165Y96049D01*
X240726Y96706D01*
X240068Y97145D01*
X239293Y97300D01*
D02*
G37*
G36*
X278140Y98277D02*
X269085D01*
Y91388D01*
X278140D01*
Y98277D01*
D02*
G37*
G36*
X254636D02*
X245581D01*
Y91388D01*
X254636D01*
Y98277D01*
D02*
G37*
G36*
X205398Y92405D02*
X202465D01*
Y92204D01*
X202619Y91430D01*
X203057Y90774D01*
X203713Y90336D01*
X204487Y90182D01*
X205398D01*
Y92405D01*
D02*
G37*
G36*
X164006Y94090D02*
X162096D01*
X161401Y93952D01*
X160812Y93558D01*
X160418Y92969D01*
X160280Y92274D01*
Y88828D01*
X160418Y88134D01*
X160812Y87544D01*
X161401Y87151D01*
X162096Y87012D01*
X164006D01*
X164701Y87151D01*
X165290Y87544D01*
X165684Y88134D01*
X165822Y88828D01*
Y89341D01*
X175287D01*
X175435Y89118D01*
X176093Y88679D01*
X176868Y88525D01*
X177644Y88679D01*
X178301Y89118D01*
X178741Y89776D01*
X178895Y90551D01*
X178741Y91327D01*
X178301Y91984D01*
X177644Y92423D01*
X176868Y92577D01*
X176093Y92423D01*
X175435Y91984D01*
X175287Y91762D01*
X165822D01*
Y92274D01*
X165684Y92969D01*
X165290Y93558D01*
X164701Y93952D01*
X164006Y94090D01*
D02*
G37*
G36*
X56601Y89157D02*
X54740D01*
Y87726D01*
X54917D01*
X55585Y87859D01*
X56152Y88238D01*
X56530Y88804D01*
X56601Y89157D01*
D02*
G37*
G36*
X52740D02*
X50880D01*
X50950Y88804D01*
X51328Y88238D01*
X51895Y87859D01*
X52563Y87726D01*
X52740D01*
Y89157D01*
D02*
G37*
G36*
X193994Y91028D02*
X193219Y90873D01*
X192561Y90434D01*
X192122Y89777D01*
X191968Y89001D01*
X192020Y88739D01*
X190581Y87300D01*
X190319Y86907D01*
X190226Y86444D01*
X190226Y86444D01*
Y66939D01*
X183203Y59915D01*
X165822D01*
Y60427D01*
X165684Y61122D01*
X165290Y61711D01*
X164701Y62105D01*
X164409Y62163D01*
Y62978D01*
X164701Y63036D01*
X165290Y63430D01*
X165336Y63499D01*
X166230Y63670D01*
X166434Y63525D01*
X166708Y63227D01*
X166838Y62572D01*
X167277Y61915D01*
X167935Y61475D01*
X168710Y61321D01*
X169485Y61475D01*
X170143Y61915D01*
X170582Y62572D01*
X170736Y63348D01*
X170582Y64123D01*
X170143Y64780D01*
X169485Y65220D01*
X168710Y65374D01*
X168448Y65322D01*
X166477Y67293D01*
X166084Y67555D01*
X165822Y67607D01*
Y68160D01*
X165684Y68855D01*
X165290Y69444D01*
X164701Y69838D01*
X164006Y69976D01*
X162096D01*
X161401Y69838D01*
X160812Y69444D01*
X160418Y68855D01*
X160280Y68160D01*
Y64714D01*
X160418Y64019D01*
X160812Y63430D01*
X161401Y63036D01*
X161693Y62978D01*
Y62163D01*
X161401Y62105D01*
X160812Y61711D01*
X160418Y61122D01*
X160280Y60427D01*
Y56981D01*
X160418Y56287D01*
X160812Y55697D01*
X161053Y55536D01*
X161064Y55506D01*
X161021Y54626D01*
X160659Y54384D01*
X160218Y53724D01*
X160063Y52947D01*
Y52224D01*
X166039D01*
Y52947D01*
X165884Y53724D01*
X165444Y54384D01*
X165082Y54626D01*
X165038Y55506D01*
X165049Y55536D01*
X165290Y55697D01*
X165684Y56287D01*
X165822Y56981D01*
Y57494D01*
X183704D01*
X183704Y57494D01*
X184167Y57586D01*
X184560Y57848D01*
X192293Y65581D01*
X192555Y65974D01*
X192648Y66437D01*
X192648Y66437D01*
Y85942D01*
X193732Y87027D01*
X193994Y86975D01*
X194770Y87129D01*
X195427Y87568D01*
X195867Y88226D01*
X196021Y89001D01*
X195867Y89777D01*
X195427Y90434D01*
X194770Y90873D01*
X193994Y91028D01*
D02*
G37*
G36*
X38189Y109055D02*
X12992D01*
Y95669D01*
X34781D01*
Y95543D01*
X34912Y94884D01*
X35285Y94326D01*
X36339Y93272D01*
X36898Y92899D01*
X37556Y92768D01*
X50922D01*
X51131Y92413D01*
X51255Y91968D01*
X50950Y91511D01*
X50880Y91158D01*
X53740D01*
X56601D01*
X56530Y91511D01*
X56225Y91968D01*
X56350Y92413D01*
X56558Y92768D01*
X59484D01*
X60484Y91768D01*
Y88524D01*
X60442Y88515D01*
X59946Y88184D01*
X59615Y87687D01*
X59498Y87102D01*
Y85733D01*
X59615Y85147D01*
X59946Y84651D01*
X60442Y84319D01*
X61028Y84203D01*
X63382D01*
X63967Y84319D01*
X64463Y84651D01*
X64795Y85147D01*
X64911Y85733D01*
Y87102D01*
X64795Y87687D01*
X64463Y88184D01*
X63967Y88515D01*
X63925Y88524D01*
Y92480D01*
X63794Y93139D01*
X63421Y93697D01*
X61413Y95705D01*
X60855Y96078D01*
X60197Y96209D01*
X38269D01*
X38222Y96255D01*
Y97357D01*
X38189Y97523D01*
Y109055D01*
D02*
G37*
G36*
X156801Y86019D02*
X154892D01*
X154197Y85881D01*
X153607Y85487D01*
X153214Y84898D01*
X153075Y84203D01*
Y83691D01*
X151519D01*
X151507Y83750D01*
X151176Y84247D01*
X150680Y84578D01*
X150094Y84695D01*
X147740D01*
X147155Y84578D01*
X146659Y84247D01*
X146327Y83750D01*
X146211Y83165D01*
Y81796D01*
X146327Y81210D01*
X146659Y80714D01*
X147155Y80382D01*
X147740Y80266D01*
X150094D01*
X150680Y80382D01*
X151176Y80714D01*
X151507Y81210D01*
X151519Y81270D01*
X153075D01*
Y80758D01*
X153214Y80063D01*
X153607Y79473D01*
X154040Y79185D01*
X154111Y78829D01*
Y78651D01*
X154040Y78296D01*
X153607Y78007D01*
X153214Y77418D01*
X153075Y76723D01*
Y73277D01*
X153214Y72582D01*
X153607Y71993D01*
X154197Y71599D01*
X154892Y71461D01*
X156801D01*
X157496Y71599D01*
X158086Y71993D01*
X158479Y72582D01*
X158618Y73277D01*
Y76723D01*
X158479Y77418D01*
X158086Y78007D01*
X157653Y78296D01*
X157582Y78651D01*
Y78829D01*
X157653Y79185D01*
X158086Y79473D01*
X158479Y80063D01*
X158618Y80758D01*
Y84203D01*
X158479Y84898D01*
X158086Y85487D01*
X157496Y85881D01*
X156801Y86019D01*
D02*
G37*
G36*
X164006D02*
X162096D01*
X161401Y85881D01*
X160812Y85487D01*
X160418Y84898D01*
X160280Y84203D01*
Y80758D01*
X160418Y80063D01*
X160812Y79473D01*
X161053Y79312D01*
X161064Y79282D01*
X161021Y78402D01*
X160659Y78160D01*
X160218Y77501D01*
X160063Y76723D01*
Y76000D01*
X166039D01*
Y76723D01*
X165884Y77501D01*
X165444Y78160D01*
X165082Y78402D01*
X165038Y79282D01*
X165049Y79312D01*
X165290Y79473D01*
X165684Y80063D01*
X165822Y80758D01*
Y81179D01*
X177060D01*
X177209Y80957D01*
X177866Y80518D01*
X178642Y80363D01*
X179417Y80518D01*
X180075Y80957D01*
X180514Y81614D01*
X180668Y82390D01*
X180514Y83165D01*
X180075Y83823D01*
X179417Y84262D01*
X178642Y84416D01*
X177866Y84262D01*
X177209Y83823D01*
X177060Y83600D01*
X165822D01*
Y84203D01*
X165684Y84898D01*
X165290Y85487D01*
X164701Y85881D01*
X164006Y86019D01*
D02*
G37*
G36*
X218012Y82579D02*
X212303D01*
Y79951D01*
X210925D01*
Y81496D01*
X202264D01*
Y79951D01*
X201280D01*
X201279Y79951D01*
X201279Y79951D01*
X200728D01*
X200728Y79951D01*
X200265Y79859D01*
X199958Y79654D01*
X199311Y79782D01*
X198536Y79628D01*
X197878Y79189D01*
X197439Y78531D01*
X197285Y77756D01*
X197439Y76980D01*
X197878Y76323D01*
X198536Y75884D01*
X199311Y75730D01*
X200086Y75884D01*
X200744Y76323D01*
X201183Y76980D01*
X201292Y77530D01*
X202264D01*
Y75984D01*
X210925D01*
Y77530D01*
X212303D01*
Y74902D01*
X218012D01*
Y82579D01*
D02*
G37*
G36*
X223016Y82791D02*
X220949D01*
Y79740D01*
X223016D01*
Y82791D01*
D02*
G37*
G36*
X87500Y90117D02*
X86725Y89963D01*
X86067Y89523D01*
X85628Y88866D01*
X85474Y88090D01*
X85628Y87315D01*
X86067Y86658D01*
X86289Y86509D01*
Y84326D01*
X85777D01*
X85082Y84188D01*
X84493Y83794D01*
X84099Y83205D01*
X83961Y82510D01*
Y80600D01*
X84099Y79905D01*
X84493Y79316D01*
X85082Y78922D01*
X85777Y78784D01*
X89223D01*
X89918Y78922D01*
X90507Y79316D01*
X90901Y79905D01*
X91039Y80600D01*
Y82510D01*
X90901Y83205D01*
X90507Y83794D01*
X89918Y84188D01*
X89223Y84326D01*
X88711D01*
Y86509D01*
X88933Y86658D01*
X89372Y87315D01*
X89526Y88090D01*
X89372Y88866D01*
X88933Y89523D01*
X88275Y89963D01*
X87500Y90117D01*
D02*
G37*
G36*
X109925Y80087D02*
X109015D01*
X108241Y79933D01*
X107585Y79494D01*
X107147Y78838D01*
X106993Y78065D01*
Y77863D01*
X109925D01*
Y80087D01*
D02*
G37*
G36*
X150094Y77431D02*
X149917D01*
Y76000D01*
X151778D01*
X151708Y76353D01*
X151329Y76920D01*
X150763Y77298D01*
X150094Y77431D01*
D02*
G37*
G36*
X147917D02*
X147740D01*
X147072Y77298D01*
X146505Y76920D01*
X146127Y76353D01*
X146057Y76000D01*
X147917D01*
Y77431D01*
D02*
G37*
G36*
X89223Y77338D02*
X88500D01*
Y75350D01*
X91247D01*
X91101Y76083D01*
X90660Y76743D01*
X90001Y77184D01*
X89223Y77338D01*
D02*
G37*
G36*
X86500D02*
X85777D01*
X84999Y77184D01*
X84340Y76743D01*
X83899Y76083D01*
X83753Y75350D01*
X86500D01*
Y77338D01*
D02*
G37*
G36*
X223016Y77740D02*
X220949D01*
Y74689D01*
X223016D01*
Y77740D01*
D02*
G37*
G36*
X218893Y92405D02*
X215961D01*
Y89684D01*
X216165Y89382D01*
X216089Y89001D01*
X216243Y88226D01*
X216683Y87568D01*
X217249Y87190D01*
X216957Y86752D01*
X216802Y85977D01*
X216957Y85201D01*
X217396Y84544D01*
X218053Y84105D01*
X218829Y83951D01*
X219604Y84105D01*
X220262Y84544D01*
X220701Y85201D01*
X220767Y85535D01*
X239526D01*
X239958Y84735D01*
X239837Y84126D01*
Y83924D01*
X243770D01*
X247702D01*
Y84126D01*
X247581Y84735D01*
X248013Y85535D01*
X251265D01*
X251520Y84742D01*
X251081Y84085D01*
X250926Y83310D01*
X251081Y82534D01*
X251520Y81877D01*
X251312Y81054D01*
X250991Y80990D01*
X250333Y80551D01*
X249894Y79893D01*
X249740Y79118D01*
X249753Y79052D01*
X249097Y78252D01*
X247624D01*
X246992Y78657D01*
X246957Y78710D01*
X246462Y79040D01*
X246436Y79476D01*
X246507Y79890D01*
X247110Y80292D01*
X247548Y80949D01*
X247702Y81722D01*
Y81924D01*
X243770D01*
X239837D01*
Y81722D01*
X239991Y80949D01*
X240429Y80292D01*
X241032Y79890D01*
X241104Y79476D01*
X241077Y79040D01*
X240583Y78710D01*
X240191Y78124D01*
X240054Y77433D01*
Y75214D01*
X239609Y74937D01*
X239271Y74866D01*
X236183Y77954D01*
X236235Y78216D01*
X236081Y78992D01*
X235642Y79649D01*
X234984Y80088D01*
X234209Y80242D01*
X233433Y80088D01*
X232693Y79893D01*
X232254Y80551D01*
X231597Y80990D01*
X230821Y81144D01*
X230046Y80990D01*
X229388Y80551D01*
X228949Y79893D01*
X228795Y79118D01*
X228836Y78908D01*
X228260Y78207D01*
X227883Y78132D01*
X227083Y78673D01*
Y82791D01*
X225016D01*
Y78740D01*
Y74689D01*
X226916D01*
X227485Y74309D01*
X228126Y74181D01*
X228948Y73360D01*
X228554Y72623D01*
X228056Y72722D01*
X227686Y72648D01*
X226886Y72949D01*
Y72949D01*
X224819D01*
Y68898D01*
Y64846D01*
X226886D01*
Y68198D01*
X227686Y68743D01*
X228056Y68669D01*
X228831Y68823D01*
X229488Y69263D01*
X229928Y69920D01*
X230082Y70695D01*
X229983Y71193D01*
X230720Y71588D01*
X239506Y62802D01*
X239067Y62110D01*
X238498Y62223D01*
X237722Y62068D01*
X237517Y61931D01*
X236961Y61721D01*
X236492Y62135D01*
X236368Y62320D01*
X235711Y62759D01*
X234935Y62914D01*
X234160Y62759D01*
X233502Y62320D01*
X233063Y61663D01*
X232909Y60887D01*
X233063Y60112D01*
X233478Y59490D01*
Y52685D01*
X232801Y52550D01*
X232144Y52110D01*
X231704Y51453D01*
X231550Y50678D01*
X231704Y49902D01*
X232144Y49245D01*
X232770Y48826D01*
X232805Y48716D01*
X232838Y47983D01*
X232345Y47653D01*
X231906Y46996D01*
X231751Y46220D01*
X231906Y45445D01*
X232345Y44788D01*
X233002Y44348D01*
X233778Y44194D01*
X234553Y44348D01*
X235211Y44788D01*
X235650Y45445D01*
X235804Y46220D01*
X235752Y46483D01*
X239354Y50084D01*
X239354Y50084D01*
X239616Y50477D01*
X239708Y50940D01*
X239708Y50940D01*
Y58615D01*
X239931Y58764D01*
X240370Y59421D01*
X240524Y60196D01*
X240411Y60765D01*
X241103Y61204D01*
X241766Y60542D01*
X241766Y60542D01*
X242159Y60279D01*
X242622Y60187D01*
X242622Y60187D01*
X247624D01*
Y59543D01*
X255833D01*
Y63252D01*
X247624D01*
Y62608D01*
X243124D01*
X241228Y64504D01*
X241622Y65241D01*
X241697Y65226D01*
X247624D01*
Y64543D01*
X255833D01*
Y68120D01*
X262785D01*
X262785Y68120D01*
X263248Y68212D01*
X263641Y68475D01*
X265354Y70187D01*
X268774D01*
Y69543D01*
X276982D01*
Y73252D01*
X268774D01*
Y72608D01*
X264852D01*
X264852Y72608D01*
X264389Y72516D01*
X263996Y72254D01*
X262284Y70541D01*
X255833D01*
Y73252D01*
X247624D01*
Y70541D01*
X243596D01*
X241696Y72441D01*
X241767Y72779D01*
X242044Y73224D01*
X245680D01*
X246371Y73361D01*
X246957Y73753D01*
X247096Y73962D01*
X247624Y74543D01*
X255833D01*
Y78252D01*
X254436D01*
X253780Y79052D01*
X253793Y79118D01*
X253639Y79893D01*
X253199Y80551D01*
X253407Y81374D01*
X253728Y81438D01*
X254386Y81877D01*
X254534Y82099D01*
X269283D01*
X271667Y79715D01*
Y78252D01*
X268774D01*
Y74543D01*
X276982D01*
Y78252D01*
X274089D01*
Y80216D01*
X274089Y80216D01*
X273996Y80680D01*
X273734Y81073D01*
X270641Y84166D01*
X270248Y84428D01*
X269785Y84520D01*
X269785Y84520D01*
X255154D01*
X254998Y84735D01*
X255405Y85535D01*
X272989D01*
X283199Y75325D01*
X283199Y75325D01*
X283592Y75063D01*
X284055Y74970D01*
X286389D01*
X286537Y74748D01*
X287195Y74309D01*
X287970Y74155D01*
X288745Y74309D01*
X289403Y74748D01*
X289842Y75406D01*
X289996Y76181D01*
X289842Y76957D01*
X289403Y77614D01*
X288745Y78053D01*
X288161Y78169D01*
X287727Y78523D01*
X287425Y78915D01*
X287305Y79516D01*
X286866Y80173D01*
X286209Y80612D01*
X285433Y80766D01*
X284658Y80612D01*
X284000Y80173D01*
X283823Y80155D01*
X274948Y89030D01*
X274556Y89292D01*
X274092Y89385D01*
X274092Y89385D01*
X220065D01*
X219987Y89777D01*
X219548Y90434D01*
X219194Y90671D01*
X218739Y91430D01*
X218893Y92204D01*
Y92405D01*
D02*
G37*
G36*
X151778Y74000D02*
X149917D01*
Y72569D01*
X150094D01*
X150763Y72702D01*
X151329Y73080D01*
X151708Y73647D01*
X151778Y74000D01*
D02*
G37*
G36*
X147917D02*
X146057D01*
X146127Y73647D01*
X146505Y73080D01*
X147072Y72702D01*
X147740Y72569D01*
X147917D01*
Y74000D01*
D02*
G37*
G36*
X91247Y73350D02*
X88500D01*
Y71363D01*
X89223D01*
X90001Y71517D01*
X90660Y71958D01*
X91101Y72618D01*
X91247Y73350D01*
D02*
G37*
G36*
X86500D02*
X83753D01*
X83899Y72618D01*
X84340Y71958D01*
X84999Y71517D01*
X85777Y71363D01*
X86500D01*
Y73350D01*
D02*
G37*
G36*
X166039Y74000D02*
X164051D01*
Y71253D01*
X164784Y71399D01*
X165444Y71840D01*
X165884Y72499D01*
X166039Y73277D01*
Y74000D01*
D02*
G37*
G36*
X162051D02*
X160063D01*
Y73277D01*
X160218Y72499D01*
X160659Y71840D01*
X161318Y71399D01*
X162051Y71253D01*
Y74000D01*
D02*
G37*
G36*
X217815Y72736D02*
X212106D01*
Y70108D01*
X210925D01*
Y71653D01*
X202264D01*
Y70108D01*
X201304D01*
X201183Y70715D01*
X200744Y71373D01*
X200086Y71812D01*
X199311Y71966D01*
X198536Y71812D01*
X197878Y71373D01*
X197439Y70715D01*
X197285Y69940D01*
X197439Y69165D01*
X197878Y68507D01*
X198536Y68068D01*
X199311Y67914D01*
X199936Y68038D01*
X200323Y67779D01*
X200786Y67687D01*
X200786Y67687D01*
X202264D01*
Y66624D01*
X202181Y66053D01*
X201726Y65564D01*
X201494Y65409D01*
X201055Y64752D01*
X200901Y63976D01*
X201055Y63201D01*
X201494Y62543D01*
X202151Y62104D01*
X202927Y61950D01*
X203702Y62104D01*
X204360Y62543D01*
X204799Y63201D01*
X204953Y63976D01*
X204799Y64752D01*
X204405Y65342D01*
X204483Y65671D01*
X204703Y66142D01*
X210925D01*
Y67687D01*
X212106D01*
Y65059D01*
X217815D01*
Y72736D01*
D02*
G37*
G36*
X222819Y72949D02*
X220752D01*
Y69898D01*
X222819D01*
Y72949D01*
D02*
G37*
G36*
X156801Y69976D02*
X154892D01*
X154197Y69838D01*
X153607Y69444D01*
X153214Y68855D01*
X153075Y68160D01*
Y67648D01*
X147052D01*
X147052Y67648D01*
X146588Y67555D01*
X146196Y67293D01*
X139597Y60694D01*
X139334Y60301D01*
X139242Y59838D01*
X139242Y59838D01*
Y57172D01*
X138690Y57062D01*
X138194Y56730D01*
X137863Y56234D01*
X137746Y55649D01*
Y54279D01*
X137863Y53694D01*
X138194Y53198D01*
X138690Y52866D01*
X139276Y52750D01*
X141630D01*
X142215Y52866D01*
X142711Y53198D01*
X143043Y53694D01*
X143159Y54279D01*
Y55649D01*
X143043Y56234D01*
X142711Y56730D01*
X142215Y57062D01*
X141663Y57172D01*
Y59337D01*
X147553Y65226D01*
X153075D01*
Y64714D01*
X153214Y64019D01*
X153607Y63430D01*
X154197Y63036D01*
X154488Y62978D01*
Y62163D01*
X154197Y62105D01*
X153607Y61711D01*
X153214Y61122D01*
X153075Y60427D01*
Y59915D01*
X151519D01*
X151507Y59974D01*
X151176Y60471D01*
X150680Y60802D01*
X150094Y60919D01*
X147740D01*
X147155Y60802D01*
X146659Y60471D01*
X146327Y59974D01*
X146211Y59389D01*
Y58019D01*
X146327Y57434D01*
X146659Y56938D01*
X147155Y56606D01*
X147740Y56490D01*
X150094D01*
X150680Y56606D01*
X151176Y56938D01*
X151507Y57434D01*
X151519Y57494D01*
X153075D01*
Y56981D01*
X153214Y56287D01*
X153607Y55697D01*
X154040Y55408D01*
X154111Y55053D01*
Y54875D01*
X154040Y54519D01*
X153607Y54231D01*
X153214Y53641D01*
X153075Y52947D01*
Y49501D01*
X153214Y48806D01*
X153607Y48217D01*
X154197Y47823D01*
X154892Y47685D01*
X156801D01*
X157496Y47823D01*
X158086Y48217D01*
X158479Y48806D01*
X158618Y49501D01*
Y52947D01*
X158479Y53641D01*
X158086Y54231D01*
X157653Y54519D01*
X157582Y54875D01*
Y55053D01*
X157653Y55408D01*
X158086Y55697D01*
X158479Y56287D01*
X158618Y56981D01*
Y60427D01*
X158479Y61122D01*
X158086Y61711D01*
X157496Y62105D01*
X157205Y62163D01*
Y62978D01*
X157496Y63036D01*
X158086Y63430D01*
X158479Y64019D01*
X158618Y64714D01*
Y68160D01*
X158479Y68855D01*
X158086Y69444D01*
X157496Y69838D01*
X156801Y69976D01*
D02*
G37*
G36*
X54917Y84892D02*
X52563D01*
X51978Y84775D01*
X51482Y84444D01*
X51150Y83947D01*
X51034Y83362D01*
Y81992D01*
X51150Y81407D01*
X51482Y80911D01*
X51978Y80579D01*
X52500Y80475D01*
Y78100D01*
X52031Y78007D01*
X51442Y77613D01*
X51048Y77024D01*
X50910Y76329D01*
Y72884D01*
X51048Y72189D01*
X51442Y71599D01*
X52031Y71206D01*
X52380Y71136D01*
Y70321D01*
X51948Y70235D01*
X51289Y69794D01*
X50848Y69134D01*
X50693Y68357D01*
Y67634D01*
X53681D01*
X56669D01*
Y68357D01*
X56514Y69134D01*
X56073Y69794D01*
X55414Y70235D01*
X54982Y70321D01*
Y71136D01*
X55331Y71206D01*
X55920Y71599D01*
X56314Y72189D01*
X56452Y72884D01*
Y76329D01*
X56314Y77024D01*
X55920Y77613D01*
X55331Y78007D01*
X54921Y78088D01*
Y80463D01*
X55502Y80579D01*
X55999Y80911D01*
X56330Y81407D01*
X56447Y81992D01*
Y83362D01*
X56330Y83947D01*
X55999Y84444D01*
X55502Y84775D01*
X54917Y84892D01*
D02*
G37*
G36*
X222819Y67898D02*
X220752D01*
Y64846D01*
X222819D01*
Y67898D01*
D02*
G37*
G36*
X276982Y68252D02*
X268774D01*
Y64543D01*
X276982D01*
Y68252D01*
D02*
G37*
G36*
X56669Y65634D02*
X54681D01*
Y62887D01*
X55414Y63033D01*
X56073Y63474D01*
X56514Y64133D01*
X56669Y64911D01*
Y65634D01*
D02*
G37*
G36*
X52681D02*
X50693D01*
Y64911D01*
X50848Y64133D01*
X51289Y63474D01*
X51948Y63033D01*
X52681Y62887D01*
Y65634D01*
D02*
G37*
G36*
X277195Y63465D02*
X273878D01*
Y62398D01*
X277195D01*
Y63465D01*
D02*
G37*
G36*
X271878D02*
X268561D01*
Y62398D01*
X271878D01*
Y63465D01*
D02*
G37*
G36*
X277195Y60398D02*
X273878D01*
Y59331D01*
X277195D01*
Y60398D01*
D02*
G37*
G36*
X271878D02*
X268561D01*
Y59331D01*
X271878D01*
Y60398D01*
D02*
G37*
G36*
X194537Y55912D02*
Y53165D01*
X196525D01*
Y53888D01*
X196371Y54666D01*
X195930Y55326D01*
X195270Y55766D01*
X194537Y55912D01*
D02*
G37*
G36*
X192537D02*
X191805Y55766D01*
X191145Y55326D01*
X190704Y54666D01*
X190550Y53888D01*
Y53165D01*
X192537D01*
Y55912D01*
D02*
G37*
G36*
X150094Y53655D02*
X149917D01*
Y52224D01*
X151778D01*
X151708Y52577D01*
X151329Y53144D01*
X150763Y53522D01*
X150094Y53655D01*
D02*
G37*
G36*
X147917D02*
X147740D01*
X147072Y53522D01*
X146505Y53144D01*
X146127Y52577D01*
X146057Y52224D01*
X147917D01*
Y53655D01*
D02*
G37*
G36*
X208549Y56098D02*
X208348D01*
Y52165D01*
X206348D01*
Y56098D01*
X206146D01*
X205372Y55944D01*
X204716Y55506D01*
X204278Y54850D01*
X204208Y54498D01*
X203392Y54498D01*
X203375Y54583D01*
X202981Y55172D01*
X202392Y55566D01*
X201697Y55704D01*
X199787D01*
X199092Y55566D01*
X198503Y55172D01*
X198109Y54583D01*
X197971Y53888D01*
Y50443D01*
X198109Y49748D01*
X198503Y49158D01*
X199092Y48765D01*
X199505Y48683D01*
Y46457D01*
X177854D01*
Y39567D01*
X204020D01*
Y39354D01*
X204807D01*
Y39567D01*
X204823D01*
Y43012D01*
X206791D01*
Y39567D01*
X206807D01*
Y39354D01*
X207014D01*
X207658Y38581D01*
X207619Y38386D01*
X207774Y37610D01*
X208213Y36953D01*
X208870Y36514D01*
X209646Y36360D01*
X210421Y36514D01*
X211079Y36953D01*
X211518Y37610D01*
X211672Y38386D01*
X211632Y38588D01*
X211781Y38737D01*
X211781Y38737D01*
X212044Y39130D01*
X212131Y39567D01*
X215846D01*
Y41407D01*
X218373D01*
X218600Y41255D01*
X219376Y41101D01*
X220151Y41255D01*
X220809Y41695D01*
X221248Y42352D01*
X221402Y43127D01*
X221248Y43903D01*
X220809Y44560D01*
X220151Y45000D01*
X219376Y45154D01*
X218600Y45000D01*
X218373Y44848D01*
X215846D01*
Y46457D01*
X215680D01*
Y48537D01*
X215933Y48587D01*
X216519Y48978D01*
X216910Y49564D01*
X217048Y50255D01*
Y54076D01*
X216910Y54767D01*
X216519Y55352D01*
X215933Y55744D01*
X215242Y55881D01*
X212839D01*
X212148Y55744D01*
X211562Y55352D01*
X211232Y54858D01*
X210795Y54831D01*
X210382Y54903D01*
X209979Y55506D01*
X209323Y55944D01*
X208549Y56098D01*
D02*
G37*
G36*
X289919Y73358D02*
X289144Y73204D01*
X288487Y72765D01*
X288048Y72107D01*
X287893Y71332D01*
X288048Y70556D01*
X288199Y70330D01*
Y63388D01*
X288330Y62729D01*
X288703Y62171D01*
X292571Y58303D01*
Y19746D01*
X278483Y5658D01*
X272487D01*
X272274Y6047D01*
X272166Y6458D01*
X272541Y7020D01*
X272696Y7795D01*
X272541Y8571D01*
X272102Y9228D01*
X271445Y9667D01*
X270669Y9822D01*
X270407Y9770D01*
X267375Y12802D01*
X266982Y13064D01*
X266519Y13156D01*
X266519Y13156D01*
X205195D01*
X202615Y15735D01*
X202947Y16535D01*
X215846D01*
Y23425D01*
X202071D01*
X201850Y23896D01*
X201772Y24225D01*
X202167Y24815D01*
X202321Y25591D01*
X202167Y26366D01*
X201727Y27023D01*
X201070Y27463D01*
X200295Y27617D01*
X199519Y27463D01*
X198862Y27023D01*
X198423Y26366D01*
X198268Y25591D01*
X198423Y24815D01*
X198817Y24225D01*
X198739Y23896D01*
X198518Y23425D01*
X182004D01*
Y23638D01*
X180823D01*
Y19980D01*
Y16323D01*
X182004D01*
Y16535D01*
X191748D01*
X191779Y15735D01*
X190050Y14006D01*
X159062D01*
X158913Y14228D01*
X158256Y14667D01*
X157480Y14822D01*
X156705Y14667D01*
X156047Y14228D01*
X155608Y13571D01*
X155454Y12795D01*
X155608Y12020D01*
X156047Y11362D01*
X156705Y10923D01*
X157480Y10769D01*
X158256Y10923D01*
X158913Y11362D01*
X159062Y11585D01*
X190551D01*
X190551Y11585D01*
X191015Y11677D01*
X191407Y11939D01*
X193560Y14092D01*
X194360Y13761D01*
Y8812D01*
X194106Y8762D01*
X193449Y8323D01*
X193010Y7665D01*
X192856Y6890D01*
X192941Y6458D01*
X192426Y5658D01*
X121776D01*
X114775Y12658D01*
Y27343D01*
X114775Y27348D01*
X115575Y27427D01*
X115595Y27325D01*
X115665Y26972D01*
X116105Y26315D01*
X116762Y25876D01*
X117537Y25721D01*
X118313Y25876D01*
X118970Y26315D01*
X119410Y26972D01*
X119564Y27748D01*
X119410Y28523D01*
X119258Y28750D01*
Y34213D01*
X119941D01*
Y40591D01*
X115552D01*
X115220Y41390D01*
X117183Y43353D01*
X119907D01*
Y49585D01*
X119907Y49731D01*
X120148Y50432D01*
X120676Y50537D01*
X121332Y50975D01*
X121735Y51578D01*
X122149Y51649D01*
X122585Y51623D01*
X122915Y51129D01*
X123501Y50737D01*
X124192Y50600D01*
X126595D01*
X127286Y50737D01*
X127872Y51129D01*
X128263Y51714D01*
X128401Y52405D01*
Y55675D01*
X129035Y56325D01*
X129811Y56479D01*
X130468Y56918D01*
X130907Y57576D01*
X131062Y58351D01*
X130907Y59126D01*
X130468Y59784D01*
X129811Y60223D01*
X129035Y60377D01*
X128260Y60223D01*
X127603Y59784D01*
X127163Y59126D01*
X127009Y58351D01*
X126272Y58031D01*
X124192D01*
X123501Y57894D01*
X122915Y57503D01*
X122585Y57008D01*
X122149Y56981D01*
X121735Y57053D01*
X121332Y57656D01*
X120676Y58094D01*
X119903Y58248D01*
X119701D01*
Y54316D01*
X117701D01*
Y58248D01*
X117499D01*
X116725Y58094D01*
X116069Y57656D01*
X115631Y57000D01*
X115510Y56395D01*
X115008Y56175D01*
X114677Y56139D01*
X114153Y56541D01*
X113483Y56819D01*
X112763Y56914D01*
X112044Y56819D01*
X111373Y56541D01*
X110798Y56099D01*
X110356Y55524D01*
X110078Y54853D01*
X109984Y54134D01*
X110078Y53414D01*
X110356Y52744D01*
X110798Y52168D01*
X111373Y51727D01*
X112044Y51449D01*
X112763Y51354D01*
X113483Y51449D01*
X114153Y51727D01*
X114729Y52168D01*
X115568Y51948D01*
X115631Y51631D01*
X116069Y50975D01*
X116725Y50537D01*
X116753Y50531D01*
X116675Y49731D01*
X114750D01*
Y45786D01*
X111838Y42874D01*
X111465Y42316D01*
X111334Y41658D01*
Y11946D01*
X111465Y11287D01*
X111838Y10729D01*
X119846Y2720D01*
X120405Y2348D01*
X121063Y2217D01*
X279195D01*
X279854Y2348D01*
X280412Y2720D01*
X295508Y17817D01*
X295881Y18375D01*
X296012Y19033D01*
Y59016D01*
X295881Y59674D01*
X295508Y60232D01*
X291640Y64100D01*
Y70330D01*
X291792Y70556D01*
X291946Y71332D01*
X291792Y72107D01*
X291352Y72765D01*
X290695Y73204D01*
X289919Y73358D01*
D02*
G37*
G36*
X151778Y50224D02*
X149917D01*
Y48793D01*
X150094D01*
X150763Y48926D01*
X151329Y49304D01*
X151708Y49871D01*
X151778Y50224D01*
D02*
G37*
G36*
X147917D02*
X146057D01*
X146127Y49871D01*
X146505Y49304D01*
X147072Y48926D01*
X147740Y48793D01*
X147917D01*
Y50224D01*
D02*
G37*
G36*
X28740Y68660D02*
X27965Y68506D01*
X27307Y68067D01*
X26868Y67409D01*
X26815Y67142D01*
X24374Y64701D01*
X24001Y64143D01*
X23870Y63484D01*
Y61811D01*
X12992D01*
Y48425D01*
X38189D01*
Y61811D01*
X27311D01*
Y62772D01*
X29248Y64709D01*
X29516Y64762D01*
X30173Y65201D01*
X30612Y65858D01*
X30766Y66634D01*
X30612Y67409D01*
X30173Y68067D01*
X29516Y68506D01*
X28740Y68660D01*
D02*
G37*
G36*
X196525Y51165D02*
X194537D01*
Y48419D01*
X195270Y48564D01*
X195930Y49005D01*
X196371Y49665D01*
X196525Y50443D01*
Y51165D01*
D02*
G37*
G36*
X192537D02*
X190550D01*
Y50443D01*
X190704Y49665D01*
X191145Y49005D01*
X191805Y48564D01*
X192537Y48419D01*
Y51165D01*
D02*
G37*
G36*
X166039Y50224D02*
X164051D01*
Y47477D01*
X164784Y47623D01*
X165444Y48064D01*
X165884Y48723D01*
X166039Y49501D01*
Y50224D01*
D02*
G37*
G36*
X162051D02*
X160063D01*
Y49501D01*
X160218Y48723D01*
X160659Y48064D01*
X161318Y47623D01*
X162051Y47477D01*
Y50224D01*
D02*
G37*
G36*
X75590Y52003D02*
X72441D01*
X71750Y51866D01*
X71164Y51474D01*
X70802Y50933D01*
X57168D01*
X56510Y50802D01*
X55952Y50429D01*
X44866Y39344D01*
X44599Y39290D01*
X43941Y38851D01*
X43502Y38194D01*
X43348Y37418D01*
X43502Y36643D01*
X43941Y35985D01*
X44599Y35546D01*
X45374Y35392D01*
X46150Y35546D01*
X46807Y35985D01*
X47246Y36643D01*
X47299Y36911D01*
X57881Y47492D01*
X70802D01*
X71164Y46951D01*
X71750Y46560D01*
X72441Y46422D01*
X75590D01*
X76282Y46560D01*
X76868Y46951D01*
X77259Y47537D01*
X77397Y48228D01*
Y50197D01*
X77259Y50888D01*
X76868Y51474D01*
X76282Y51866D01*
X75590Y52003D01*
D02*
G37*
G36*
X90945Y45114D02*
X87795D01*
X87104Y44976D01*
X86518Y44584D01*
X86126Y43998D01*
X85989Y43307D01*
Y41339D01*
X86126Y40647D01*
X86518Y40061D01*
X87104Y39670D01*
X87795Y39532D01*
X90945D01*
X91636Y39670D01*
X92222Y40061D01*
X92614Y40647D01*
X92751Y41339D01*
Y43307D01*
X92614Y43998D01*
X92222Y44584D01*
X91636Y44976D01*
X90945Y45114D01*
D02*
G37*
G36*
X124268Y47875D02*
X123493Y47721D01*
X122835Y47282D01*
X122396Y46624D01*
X122242Y45849D01*
X122396Y45074D01*
X122805Y44462D01*
Y39967D01*
X122583Y39819D01*
X122144Y39161D01*
X121989Y38386D01*
X122144Y37610D01*
X122583Y36953D01*
X123240Y36514D01*
X124016Y36360D01*
X124791Y36514D01*
X125449Y36953D01*
X125888Y37610D01*
X126042Y38386D01*
X125888Y39161D01*
X125449Y39819D01*
X125226Y39967D01*
Y44099D01*
X125701Y44416D01*
X126140Y45074D01*
X126295Y45849D01*
X126140Y46624D01*
X125701Y47282D01*
X125044Y47721D01*
X124268Y47875D01*
D02*
G37*
G36*
X90945Y58893D02*
X87795D01*
X87104Y58755D01*
X86518Y58364D01*
X86126Y57778D01*
X85989Y57087D01*
Y55118D01*
X86126Y54427D01*
X86518Y53841D01*
X87104Y53449D01*
X87795Y53312D01*
X90945D01*
X91636Y53449D01*
X92222Y53841D01*
X92584Y54382D01*
X93831D01*
X97689Y50524D01*
Y38404D01*
X97537Y38177D01*
X97383Y37402D01*
X97537Y36626D01*
X97977Y35969D01*
X98634Y35530D01*
X99410Y35375D01*
X101909D01*
Y34213D01*
X107067D01*
Y40591D01*
X106192D01*
Y43353D01*
X107034D01*
Y49731D01*
X101876D01*
Y49731D01*
X101130Y49861D01*
Y51236D01*
X100999Y51895D01*
X100626Y52453D01*
X95760Y57319D01*
X95202Y57692D01*
X94543Y57823D01*
X92584D01*
X92222Y58364D01*
X91636Y58755D01*
X90945Y58893D01*
D02*
G37*
G36*
X27642Y30704D02*
X27440D01*
X26666Y30550D01*
X26010Y30112D01*
X25572Y29456D01*
X25418Y28682D01*
Y27772D01*
X27642D01*
Y30704D01*
D02*
G37*
G36*
X68504Y35491D02*
X67729Y35337D01*
X67071Y34897D01*
X63528Y31354D01*
X60972Y28798D01*
X49454D01*
X49357Y28943D01*
X48781Y29328D01*
X48101Y29463D01*
X42647D01*
X41967Y29328D01*
X41391Y28943D01*
X41294Y28798D01*
X38319D01*
X38204Y29373D01*
X37813Y29959D01*
X37227Y30350D01*
X36536Y30487D01*
X34133D01*
X33442Y30350D01*
X32856Y29959D01*
X32526Y29464D01*
X32090Y29438D01*
X31676Y29509D01*
X31273Y30112D01*
X30617Y30550D01*
X29844Y30704D01*
X29642D01*
Y26772D01*
Y22839D01*
X29844D01*
X30617Y22993D01*
X31273Y23431D01*
X31676Y24034D01*
X32090Y24106D01*
X32526Y24079D01*
X32856Y23585D01*
X33442Y23193D01*
X34133Y23056D01*
X36536D01*
X37227Y23193D01*
X37813Y23585D01*
X38204Y24170D01*
X38319Y24745D01*
X41294D01*
X41391Y24600D01*
X41967Y24215D01*
X42647Y24080D01*
X48101D01*
X48781Y24215D01*
X49357Y24600D01*
X49454Y24745D01*
X52123D01*
X52328Y24424D01*
X52470Y23945D01*
X52114Y23413D01*
X51960Y22638D01*
Y19743D01*
X49454D01*
X49357Y19888D01*
X48781Y20273D01*
X48101Y20408D01*
X42647D01*
X41967Y20273D01*
X41391Y19888D01*
X41294Y19743D01*
X38417D01*
X38303Y20318D01*
X37911Y20904D01*
X37326Y21295D01*
X36635Y21432D01*
X34231D01*
X33540Y21295D01*
X32955Y20904D01*
X32624Y20409D01*
X32188Y20382D01*
X31775Y20454D01*
X31372Y21057D01*
X30716Y21495D01*
X29942Y21649D01*
X29740D01*
Y17717D01*
Y13784D01*
X29942D01*
X30716Y13938D01*
X31372Y14376D01*
X31775Y14979D01*
X32188Y15051D01*
X32624Y15024D01*
X32955Y14529D01*
X33540Y14138D01*
X34231Y14001D01*
X36635D01*
X37326Y14138D01*
X37911Y14529D01*
X38303Y15115D01*
X38417Y15690D01*
X41294D01*
X41391Y15545D01*
X41967Y15160D01*
X42647Y15025D01*
X48101D01*
X48781Y15160D01*
X49357Y15545D01*
X49454Y15690D01*
X51960D01*
Y12795D01*
X52114Y12020D01*
X52553Y11362D01*
X53211Y10923D01*
X53986Y10769D01*
X54762Y10923D01*
X55419Y11362D01*
X55858Y12020D01*
X56013Y12795D01*
Y17717D01*
Y22638D01*
X55858Y23413D01*
X55503Y23945D01*
X55645Y24424D01*
X55849Y24745D01*
X61811D01*
X62586Y24900D01*
X63244Y25339D01*
X66394Y28488D01*
X69343Y31438D01*
X81360D01*
X81439Y30638D01*
X80997Y30550D01*
X80341Y30112D01*
X79902Y29456D01*
X79749Y28682D01*
Y27772D01*
X82972D01*
Y26772D01*
X83972D01*
Y22839D01*
X84174D01*
X84948Y22993D01*
X85604Y23431D01*
X86007Y24034D01*
X86420Y24106D01*
X86857Y24079D01*
X87187Y23585D01*
X87773Y23193D01*
X88464Y23056D01*
X90867D01*
X91558Y23193D01*
X92144Y23585D01*
X92535Y24170D01*
X92649Y24745D01*
X95133D01*
X95230Y24600D01*
X95806Y24215D01*
X96485Y24080D01*
X101940D01*
X102619Y24215D01*
X103195Y24600D01*
X103580Y25176D01*
X103715Y25855D01*
Y27688D01*
X103580Y28367D01*
X103195Y28943D01*
X102619Y29328D01*
X101940Y29463D01*
X101822D01*
X101239Y29921D01*
X101085Y30697D01*
X100645Y31354D01*
X97102Y34897D01*
X96445Y35337D01*
X95669Y35491D01*
X68504D01*
X68504Y35491D01*
D02*
G37*
G36*
X275908Y27617D02*
X275133Y27463D01*
X274475Y27023D01*
X274036Y26366D01*
X273882Y25591D01*
X274036Y24815D01*
X274475Y24158D01*
X275133Y23719D01*
X275908Y23564D01*
X276684Y23719D01*
X277341Y24158D01*
X277780Y24815D01*
X277935Y25591D01*
X277780Y26366D01*
X277341Y27023D01*
X276684Y27463D01*
X275908Y27617D01*
D02*
G37*
G36*
X238446D02*
X237671Y27463D01*
X237013Y27023D01*
X236574Y26366D01*
X236420Y25591D01*
X236574Y24815D01*
X237013Y24158D01*
X237671Y23719D01*
X238446Y23564D01*
X239222Y23719D01*
X239879Y24158D01*
X240318Y24815D01*
X240473Y25591D01*
X240318Y26366D01*
X239879Y27023D01*
X239222Y27463D01*
X238446Y27617D01*
D02*
G37*
G36*
X162202D02*
X161427Y27463D01*
X160769Y27023D01*
X160330Y26366D01*
X160176Y25591D01*
X160330Y24815D01*
X160769Y24158D01*
X161427Y23719D01*
X162202Y23564D01*
X162978Y23719D01*
X163635Y24158D01*
X164074Y24815D01*
X164229Y25591D01*
X164074Y26366D01*
X163635Y27023D01*
X162978Y27463D01*
X162202Y27617D01*
D02*
G37*
G36*
X81972Y25772D02*
X79749D01*
Y24861D01*
X79902Y24087D01*
X80341Y23431D01*
X80997Y22993D01*
X81771Y22839D01*
X81972D01*
Y25772D01*
D02*
G37*
G36*
X27642D02*
X25418D01*
Y24861D01*
X25572Y24087D01*
X26010Y23431D01*
X26666Y22993D01*
X27440Y22839D01*
X27642D01*
Y25772D01*
D02*
G37*
G36*
X178823Y23638D02*
X177642D01*
Y20980D01*
X178823D01*
Y23638D01*
D02*
G37*
G36*
X107825Y24664D02*
X107049Y24510D01*
X106392Y24071D01*
X105953Y23413D01*
X105798Y22638D01*
Y19743D01*
X103292D01*
X103195Y19888D01*
X102619Y20273D01*
X101940Y20408D01*
X96485D01*
X95806Y20273D01*
X95230Y19888D01*
X95133Y19743D01*
X92649D01*
X92535Y20318D01*
X92144Y20904D01*
X91558Y21295D01*
X90867Y21432D01*
X88464D01*
X87773Y21295D01*
X87187Y20904D01*
X86857Y20409D01*
X86420Y20382D01*
X86007Y20454D01*
X85604Y21057D01*
X84948Y21495D01*
X84174Y21649D01*
X83972D01*
Y17717D01*
Y13784D01*
X84174D01*
X84948Y13938D01*
X85604Y14376D01*
X86007Y14979D01*
X86420Y15051D01*
X86857Y15024D01*
X87187Y14529D01*
X87773Y14138D01*
X88464Y14001D01*
X90867D01*
X91558Y14138D01*
X92144Y14529D01*
X92535Y15115D01*
X92649Y15690D01*
X95133D01*
X95230Y15545D01*
X95806Y15160D01*
X96485Y15025D01*
X101940D01*
X102619Y15160D01*
X103195Y15545D01*
X103292Y15690D01*
X105798D01*
Y12795D01*
X105953Y12020D01*
X106392Y11362D01*
X107049Y10923D01*
X107825Y10769D01*
X108600Y10923D01*
X109258Y11362D01*
X109697Y12020D01*
X109851Y12795D01*
Y17717D01*
Y22638D01*
X109697Y23413D01*
X109258Y24071D01*
X108600Y24510D01*
X107825Y24664D01*
D02*
G37*
G36*
X81972Y21649D02*
X81771D01*
X80997Y21495D01*
X80341Y21057D01*
X79902Y20401D01*
X79749Y19627D01*
Y18717D01*
X81972D01*
Y21649D01*
D02*
G37*
G36*
X27740D02*
X27538D01*
X26765Y21495D01*
X26109Y21057D01*
X25670Y20401D01*
X25516Y19627D01*
Y18717D01*
X27740D01*
Y21649D01*
D02*
G37*
G36*
X178823Y18980D02*
X177642D01*
Y16323D01*
X178823D01*
Y18980D01*
D02*
G37*
G36*
X81972Y16716D02*
X79749D01*
Y15806D01*
X79902Y15032D01*
X80341Y14376D01*
X80997Y13938D01*
X81771Y13784D01*
X81972D01*
Y16716D01*
D02*
G37*
G36*
X27740D02*
X25516D01*
Y15806D01*
X25670Y15032D01*
X26109Y14376D01*
X26765Y13938D01*
X27538Y13784D01*
X27740D01*
Y16716D01*
D02*
G37*
G36*
X10842Y18285D02*
Y10842D01*
X18285D01*
X18219Y11509D01*
X17733Y13111D01*
X16944Y14588D01*
X15882Y15882D01*
X14588Y16944D01*
X13111Y17733D01*
X11509Y18219D01*
X10842Y18285D01*
D02*
G37*
G36*
X304118D02*
X303452Y18219D01*
X301850Y17733D01*
X300373Y16944D01*
X299079Y15882D01*
X298016Y14588D01*
X297227Y13111D01*
X296741Y11509D01*
X296675Y10842D01*
X304118D01*
Y18285D01*
D02*
G37*
G36*
X125362Y25034D02*
X119914D01*
X119233Y24899D01*
X118656Y24513D01*
X118271Y23936D01*
X118135Y23256D01*
Y12178D01*
X118271Y11497D01*
X118656Y10920D01*
X119233Y10534D01*
X119914Y10399D01*
X125362D01*
X126042Y10534D01*
X126620Y10920D01*
X127005Y11497D01*
X127140Y12178D01*
Y23256D01*
X127005Y23936D01*
X126620Y24513D01*
X126042Y24899D01*
X125362Y25034D01*
D02*
G37*
G36*
X71523D02*
X66075D01*
X65395Y24899D01*
X64818Y24513D01*
X64432Y23936D01*
X64297Y23256D01*
Y12178D01*
X64432Y11497D01*
X64818Y10920D01*
X65395Y10534D01*
X66075Y10399D01*
X71523D01*
X72204Y10534D01*
X72781Y10920D01*
X73167Y11497D01*
X73302Y12178D01*
Y23256D01*
X73167Y23936D01*
X72781Y24513D01*
X72204Y24899D01*
X71523Y25034D01*
D02*
G37*
G36*
X48101Y11570D02*
X46374D01*
Y9661D01*
X50077D01*
X49942Y10340D01*
X49510Y10986D01*
X48864Y11418D01*
X48101Y11570D01*
D02*
G37*
G36*
X101940D02*
X100213D01*
Y9661D01*
X103915D01*
X103780Y10340D01*
X103349Y10986D01*
X102702Y11418D01*
X101940Y11570D01*
D02*
G37*
G36*
X98213D02*
X96485D01*
X95723Y11418D01*
X95077Y10986D01*
X94645Y10340D01*
X94510Y9661D01*
X98213D01*
Y11570D01*
D02*
G37*
G36*
X44374D02*
X42647D01*
X41884Y11418D01*
X41238Y10986D01*
X40806Y10340D01*
X40671Y9661D01*
X44374D01*
Y11570D01*
D02*
G37*
G36*
X103915Y7661D02*
X100213D01*
Y5753D01*
X101940D01*
X102702Y5905D01*
X103349Y6336D01*
X103780Y6983D01*
X103915Y7661D01*
D02*
G37*
G36*
X98213D02*
X94510D01*
X94645Y6983D01*
X95077Y6336D01*
X95723Y5905D01*
X96485Y5753D01*
X98213D01*
Y7661D01*
D02*
G37*
G36*
X50077D02*
X46374D01*
Y5753D01*
X48101D01*
X48864Y5905D01*
X49510Y6336D01*
X49942Y6983D01*
X50077Y7661D01*
D02*
G37*
G36*
X44374D02*
X40671D01*
X40806Y6983D01*
X41238Y6336D01*
X41884Y5905D01*
X42647Y5753D01*
X44374D01*
Y7661D01*
D02*
G37*
%LPD*%
G36*
X203837Y8002D02*
X203837Y8002D01*
X204230Y7740D01*
X204693Y7648D01*
X231686D01*
X231835Y7425D01*
X232492Y6986D01*
X233268Y6832D01*
X234043Y6986D01*
X234701Y7425D01*
X235140Y8083D01*
X235294Y8858D01*
X235140Y9634D01*
X234939Y9935D01*
X235366Y10735D01*
X266018D01*
X268695Y8057D01*
X268643Y7795D01*
X268797Y7020D01*
X269173Y6458D01*
X269064Y6047D01*
X268851Y5658D01*
X197338D01*
X196822Y6458D01*
X196908Y6890D01*
X196754Y7665D01*
X196722Y7713D01*
X196782Y8012D01*
X196782Y8012D01*
Y13926D01*
X197582Y14258D01*
X203837Y8002D01*
D02*
G37*
D17*
X128072Y65080D02*
X133116D01*
X125000Y62008D02*
X128072Y65080D01*
X100295Y62008D02*
X125000D01*
X87500Y81555D02*
Y88090D01*
X101378Y79602D02*
X106603Y84827D01*
X135671D02*
X137276Y83222D01*
X106603Y84827D02*
X135671D01*
X137276Y83222D02*
X137381D01*
X140453Y83614D02*
X147052Y90213D01*
X140453Y78740D02*
Y83614D01*
X147052Y90213D02*
X155847D01*
X101917Y99409D02*
X121863Y119355D01*
X159217D02*
X159449Y119587D01*
X121863Y119355D02*
X159217D01*
X144159Y121589D02*
Y126969D01*
Y121589D02*
X144193Y121555D01*
X135369Y141732D02*
X135838Y141264D01*
X110402Y147364D02*
X116034Y141732D01*
X135838Y136614D02*
Y141264D01*
X116034Y141732D02*
X135369D01*
X135943Y143139D02*
X139007Y140074D01*
Y134052D02*
Y140074D01*
X116683Y143139D02*
X135943D01*
X105073Y147364D02*
X110402D01*
X110250Y149572D02*
X116683Y143139D01*
X102788Y149572D02*
X110250D01*
X100162Y146946D02*
X102788Y149572D01*
X104200Y147364D02*
X105073D01*
X101250Y144414D02*
X104200Y147364D01*
X62085Y146910D02*
X64581Y144414D01*
X101250D01*
X66899Y146946D02*
X100162D01*
X63340Y76332D02*
X86417Y99409D01*
X101917D01*
X60886Y66634D02*
Y74829D01*
X62389Y76332D01*
X63340D01*
X163142Y82390D02*
X178642D01*
X199311Y69940D02*
X199744D01*
X124016Y38386D02*
Y45597D01*
X124268Y45849D01*
X191437Y66437D02*
Y86444D01*
X163051Y58704D02*
X183704D01*
X191437Y66437D01*
X138539Y133583D02*
X139007Y134052D01*
X135957Y133583D02*
X138539D01*
X135838Y133465D02*
X135957Y133583D01*
X93073Y137613D02*
X115495D01*
X116428Y134399D02*
Y136680D01*
X115495Y137613D02*
X116428Y136680D01*
Y134399D02*
X117363Y133465D01*
X120090D01*
X92372Y136913D02*
X93073Y137613D01*
X90039Y129921D02*
X92372Y132254D01*
Y136913D01*
X228260Y75760D02*
Y76181D01*
X242622Y61398D02*
X251728D01*
X228260Y75760D02*
X242622Y61398D01*
X241697Y66437D02*
X251689D01*
X230821Y77313D02*
Y79118D01*
Y77313D02*
X241697Y66437D01*
X234209Y78216D02*
X243094Y69331D01*
X262785D01*
X264852Y71398D01*
X272878D01*
X252953Y83310D02*
X269785D01*
X272878Y80216D01*
Y76398D02*
Y80216D01*
X251689Y66437D02*
X251728Y66398D01*
X266519Y11946D02*
X270669Y7795D01*
X204693Y11946D02*
X266519D01*
X200689Y15950D02*
Y19980D01*
Y15950D02*
X204693Y11946D01*
X195571Y8012D02*
Y19980D01*
X194882Y7323D02*
X195571Y8012D01*
X194882Y6890D02*
Y7323D01*
X198130Y15421D02*
Y19980D01*
X204693Y8858D02*
X233268D01*
X198130Y15421D02*
X204693Y8858D01*
X193012Y15256D02*
Y19980D01*
X157480Y12795D02*
X190551D01*
X193012Y15256D01*
X207979Y43399D02*
X208366Y43012D01*
X208419Y43064D01*
Y45901D01*
X207348Y47379D02*
X207520D01*
X207373Y46947D02*
X208419Y45901D01*
X209646Y38386D02*
X209717D01*
X210925Y39594D02*
Y43012D01*
X209717Y38386D02*
X210925Y39594D01*
X135472Y127272D02*
X143712D01*
X115570Y127283D02*
X119713D01*
X112303Y124016D02*
X115570Y127283D01*
X110728Y124016D02*
X112303D01*
X115729Y130433D02*
X119713D01*
X112303Y133858D02*
X115729Y130433D01*
X110728Y133858D02*
X112303D01*
X163051Y90551D02*
X176868D01*
X163051Y113681D02*
X168301D01*
X168301Y113681D01*
X163051Y66437D02*
X165621D01*
X168710Y63348D01*
X191437Y86444D02*
X193994Y89001D01*
X163697Y106595D02*
X172901D01*
X163374Y106917D02*
X163697Y106595D01*
X163051D02*
X163374Y106917D01*
X163051Y82480D02*
X163142Y82390D01*
X155847Y99114D02*
Y106595D01*
X148917D02*
X155847D01*
X147052Y114327D02*
X155847D01*
X140453Y102854D02*
Y107728D01*
X147052Y114327D01*
X155847Y75000D02*
Y82480D01*
X148917D02*
X155847D01*
X140453Y59838D02*
X147052Y66437D01*
X140453Y54964D02*
Y59838D01*
X147052Y66437D02*
X155847D01*
X148917Y58704D02*
X155847D01*
Y51224D02*
Y58704D01*
X101378Y73532D02*
Y79602D01*
X230503Y108986D02*
Y108986D01*
X223819Y100354D02*
X224552Y101087D01*
Y103034D01*
X230503Y108986D01*
X198916Y109252D02*
X202272Y112608D01*
X243489D02*
X251766Y104331D01*
X202272Y112608D02*
X243489D01*
X268267Y121186D02*
Y136495D01*
X267834Y136928D02*
X268267Y136495D01*
X267834Y136928D02*
X268356Y137451D01*
X257582Y121482D02*
X259676Y123576D01*
Y137432D02*
X259695Y137451D01*
X259676Y123576D02*
Y137432D01*
X233992Y118973D02*
X260558D01*
X264026Y122441D01*
Y137451D01*
X251033Y121349D02*
Y137353D01*
X250984Y137402D02*
X251033Y137353D01*
X233992Y118973D02*
Y128970D01*
X233828Y129134D02*
X233992Y128970D01*
X202387Y100098D02*
X206398D01*
X200346Y98057D02*
X202387Y100098D01*
X237343Y93150D02*
X239293Y95100D01*
Y95273D01*
X231791Y93150D02*
X237343D01*
X223819D02*
X231791D01*
X272687Y115207D02*
Y137451D01*
X266732Y109252D02*
X272687Y115207D01*
X250984Y137402D02*
X251033Y137451D01*
X134793Y89560D02*
X134939Y89706D01*
X125197Y89560D02*
X134793D01*
X125394Y54316D02*
Y54867D01*
X128878Y58351D01*
X129035D01*
X110925Y64831D02*
Y70170D01*
X118504Y70465D02*
X118701Y70268D01*
Y64831D02*
Y70268D01*
X125197Y77432D02*
X125521Y77756D01*
X131007D01*
X251766Y104331D02*
X301181D01*
X258643Y109252D02*
X266732D01*
X200587Y106643D02*
X211929D01*
X214961Y100098D02*
Y103611D01*
X211929Y106643D02*
X214961Y103611D01*
X198100Y104157D02*
X200587Y106643D01*
X219376Y88174D02*
X274092D01*
X283526Y78740D02*
X285433D01*
X274092Y88174D02*
X283526Y78740D01*
X220030Y86745D02*
X273491D01*
X284055Y76181D01*
X287970D01*
X218548Y89001D02*
X219376Y88174D01*
X218115Y89001D02*
X218548D01*
X219262Y85977D02*
X220030Y86745D01*
X218829Y85977D02*
X219262D01*
X234689Y60641D02*
X234935Y60887D01*
X234689Y51946D02*
Y60641D01*
X233576Y50678D02*
Y50834D01*
X234689Y51946D01*
X238498Y50940D02*
Y60196D01*
X233778Y46220D02*
X238498Y50940D01*
X231791Y100354D02*
Y103606D01*
X233828Y105643D01*
X111671Y92621D02*
X111811Y92760D01*
X101378Y92621D02*
X111671D01*
X200716Y43123D02*
Y52139D01*
X233268Y8858D02*
X233552D01*
X231791Y100354D02*
X232813Y101376D01*
X53711Y82648D02*
X53740Y82677D01*
X53711Y74636D02*
Y82648D01*
X53681Y74606D02*
X53711Y74636D01*
X206594Y78740D02*
X215158D01*
X206594Y78740D02*
X206594Y78740D01*
Y68898D02*
X214961D01*
X206594Y68898D02*
X206594Y68898D01*
X200786Y68898D02*
X206594D01*
X199744Y69940D02*
X200786Y68898D01*
X201279Y78740D02*
X206594D01*
X201279Y78740D02*
X201279Y78740D01*
X199311Y77756D02*
X199744D01*
X200728Y78740D01*
X201279D01*
X214961Y100098D02*
X214961Y100098D01*
D55*
X251728Y76398D02*
X251766Y76436D01*
Y79118D01*
X243770Y76231D02*
X243853Y76314D01*
X251645D01*
X251728Y76398D01*
X213878Y43012D02*
X213994Y43127D01*
X219376D01*
X37556Y94488D02*
X60197D01*
X62205Y86417D02*
Y92480D01*
X60197Y94488D02*
X62205Y92480D01*
X89370Y56102D02*
X94543D01*
X99410Y37402D02*
Y51236D01*
X94543Y56102D02*
X99410Y51236D01*
X57168Y49213D02*
X74016D01*
X45374Y37418D02*
X57168Y49213D01*
X143712Y127272D02*
X143723Y127261D01*
X104455Y46542D02*
X104472Y46526D01*
Y37418D02*
Y46526D01*
Y37418D02*
X104488Y37402D01*
X113054Y11946D02*
X121063Y3937D01*
X113054Y41658D02*
X117329Y45932D01*
X113054Y11946D02*
Y41658D01*
X117329Y45932D02*
Y46542D01*
X289919Y63388D02*
Y71332D01*
Y63388D02*
X294291Y59016D01*
Y19033D02*
Y59016D01*
X25591Y55118D02*
Y63484D01*
X28740Y66634D01*
X25591Y102362D02*
X31496D01*
X36502Y97357D01*
Y95543D02*
X37556Y94488D01*
X36502Y95543D02*
Y97357D01*
X86614Y109252D02*
X92323D01*
X86614Y109252D02*
X86614Y109252D01*
X49213Y116142D02*
X64961D01*
X67913D02*
X81693Y129921D01*
X35976Y129378D02*
X49213Y116142D01*
X64961D02*
X67913D01*
X81693Y129921D02*
X90039D01*
X28614Y129378D02*
X35976D01*
X63976Y102362D02*
X64961Y103347D01*
X28071Y129921D02*
X28614Y129378D01*
X64961Y103347D02*
Y116142D01*
X126020Y98996D02*
X127289Y100265D01*
X126020Y97477D02*
Y98996D01*
X124016Y95472D02*
X126020Y97477D01*
X120323Y100265D02*
X127289D01*
X127953D01*
X213959Y43127D02*
Y52084D01*
X117537Y27748D02*
Y37226D01*
X117362Y37402D02*
X117537Y37226D01*
X121063Y3937D02*
X279195D01*
X294291Y19033D01*
D57*
X45374Y17717D02*
X53986D01*
Y12795D02*
Y17717D01*
Y22638D01*
X107825Y17717D02*
Y22638D01*
Y12795D02*
Y17717D01*
X99213D02*
X107825D01*
X35433D02*
X45374D01*
X89665D02*
X99213D01*
X99410Y37402D02*
X104488D01*
X64961Y29921D02*
X68504Y33465D01*
X61811Y26772D02*
X64961Y29921D01*
X95669Y33465D02*
X99213Y29921D01*
X68504Y33465D02*
X95669D01*
X99213Y26772D02*
Y29921D01*
X89665Y26772D02*
X98533D01*
X45374D02*
X61811D01*
X35335D02*
X45374D01*
D58*
X305118Y147638D02*
D03*
Y9843D02*
D03*
X9843Y147638D02*
D03*
Y9843D02*
D03*
D59*
X297374Y129283D02*
D03*
X304874Y114284D02*
D03*
X297374Y99283D02*
D03*
X304874Y54283D02*
D03*
X297374Y39283D02*
D03*
X304874Y24284D02*
D03*
X282374Y99283D02*
D03*
X289874Y84284D02*
D03*
X282374Y69283D02*
D03*
X289874Y54283D02*
D03*
X282374Y39283D02*
D03*
X289874Y24284D02*
D03*
X274874Y144283D02*
D03*
Y54283D02*
D03*
X267374Y39283D02*
D03*
X252374Y99283D02*
D03*
Y39283D02*
D03*
X259874Y24284D02*
D03*
X237374Y39283D02*
D03*
Y9284D02*
D03*
X229874Y144283D02*
D03*
X222374Y129283D02*
D03*
X229874Y84284D02*
D03*
Y24284D02*
D03*
X214874Y144283D02*
D03*
X207374Y129283D02*
D03*
X214874Y84284D02*
D03*
X199874Y144283D02*
D03*
X192374Y9284D02*
D03*
X184874Y144283D02*
D03*
X177374Y129283D02*
D03*
X184874Y114284D02*
D03*
X177374Y69283D02*
D03*
X184874Y54283D02*
D03*
X169874Y144283D02*
D03*
Y54283D02*
D03*
X162374Y9284D02*
D03*
X154874Y144283D02*
D03*
X147374Y69283D02*
D03*
X139874Y144283D02*
D03*
Y114284D02*
D03*
Y24284D02*
D03*
X124874Y114284D02*
D03*
X109874D02*
D03*
X102374Y69283D02*
D03*
X94874Y114284D02*
D03*
X87374Y69283D02*
D03*
X72374Y99283D02*
D03*
X79874Y84284D02*
D03*
X72374Y69283D02*
D03*
X79874Y54283D02*
D03*
X72374Y39283D02*
D03*
Y9284D02*
D03*
X57374Y69283D02*
D03*
X64874Y54283D02*
D03*
X57374Y39283D02*
D03*
X42374Y129283D02*
D03*
Y99283D02*
D03*
X49874Y84284D02*
D03*
Y54283D02*
D03*
X42374Y39283D02*
D03*
X34874Y144283D02*
D03*
X27374Y69283D02*
D03*
Y9284D02*
D03*
X19874Y144283D02*
D03*
X12374Y129283D02*
D03*
X19874Y114284D02*
D03*
Y84284D02*
D03*
X12374Y69283D02*
D03*
Y39283D02*
D03*
X133116Y65080D02*
D03*
X132824Y73786D02*
D03*
X87500Y88090D02*
D03*
X137381Y83222D02*
D03*
X228056Y70695D02*
D03*
X251766Y79118D02*
D03*
X219376Y43127D02*
D03*
X144193Y121555D02*
D03*
X110108Y149572D02*
D03*
X105073Y147364D02*
D03*
X66899Y146946D02*
D03*
X62085Y146910D02*
D03*
X115032Y150666D02*
D03*
X159449Y119587D02*
D03*
X178642Y82390D02*
D03*
X202927Y63976D02*
D03*
X199311Y69940D02*
D03*
X124016Y38386D02*
D03*
X71902Y131890D02*
D03*
X45374Y37418D02*
D03*
X228260Y76181D02*
D03*
X234209Y78216D02*
D03*
X230821Y79118D02*
D03*
X252953Y83310D02*
D03*
X209646Y38386D02*
D03*
X207348Y47379D02*
D03*
X149115Y126970D02*
D03*
X176868Y90551D02*
D03*
X168301Y113681D02*
D03*
X168710Y63348D02*
D03*
X193994Y89001D02*
D03*
X172901Y106595D02*
D03*
X181595Y119587D02*
D03*
X124268Y45849D02*
D03*
X289919Y71332D02*
D03*
X28740Y66634D02*
D03*
X63976Y102362D02*
D03*
X101415Y130834D02*
D03*
X230503Y108986D02*
D03*
X268267Y121186D02*
D03*
X257582Y121482D02*
D03*
X251033Y121349D02*
D03*
X233992Y118973D02*
D03*
X218835Y105643D02*
D03*
X200346Y98057D02*
D03*
X239293Y95273D02*
D03*
X240685Y126969D02*
D03*
X282687Y131890D02*
D03*
X198967Y131890D02*
D03*
X275908Y25591D02*
D03*
X238446D02*
D03*
X200295D02*
D03*
X162202D02*
D03*
X134939Y89706D02*
D03*
X112722Y88314D02*
D03*
X124016Y95472D02*
D03*
X86614Y109252D02*
D03*
X129035Y58351D02*
D03*
X124016Y82185D02*
D03*
X110925Y64831D02*
D03*
X53986Y22638D02*
D03*
Y12795D02*
D03*
Y17717D02*
D03*
X107825D02*
D03*
Y12795D02*
D03*
Y22638D02*
D03*
X118701Y64831D02*
D03*
X131007Y77756D02*
D03*
X301181Y104331D02*
D03*
X258643Y109252D02*
D03*
X198916D02*
D03*
X198100Y104157D02*
D03*
X218829Y85977D02*
D03*
X287970Y76181D02*
D03*
X218115Y89001D02*
D03*
X285433Y78740D02*
D03*
X117537Y27748D02*
D03*
X99410Y37402D02*
D03*
X233576Y50678D02*
D03*
X233778Y46220D02*
D03*
X234935Y60887D02*
D03*
X238498Y60196D02*
D03*
X101378Y73532D02*
D03*
X233828Y105643D02*
D03*
X101378Y92621D02*
D03*
X111811Y92760D02*
D03*
X100295Y62008D02*
D03*
X64961Y29921D02*
D03*
X270669Y7795D02*
D03*
X233268Y8858D02*
D03*
X194882Y6890D02*
D03*
X157480Y12795D02*
D03*
X199311Y77756D02*
D03*
D60*
X112763Y54134D02*
D03*
D67*
X87500Y74350D02*
D03*
Y81555D02*
D03*
X231791Y93150D02*
D03*
X223819D02*
D03*
X231791Y100354D02*
D03*
X223819D02*
D03*
D68*
X148917Y58704D02*
D03*
Y51224D02*
D03*
X140453Y54964D02*
D03*
X148917Y82480D02*
D03*
Y75000D02*
D03*
X140453Y78740D02*
D03*
X148917Y106595D02*
D03*
Y99114D02*
D03*
X140453Y102854D02*
D03*
X62205Y86417D02*
D03*
X53740Y82677D02*
D03*
Y90158D02*
D03*
D69*
X109252Y124016D02*
D03*
Y133858D02*
D03*
D70*
X119713Y127283D02*
D03*
Y130433D02*
D03*
Y133582D02*
D03*
Y136732D02*
D03*
X135461D02*
D03*
Y133582D02*
D03*
Y130433D02*
D03*
Y127283D02*
D03*
D71*
X127587Y132007D02*
D03*
D72*
X163051Y113681D02*
D03*
X155847D02*
D03*
X163051Y106595D02*
D03*
X155847D02*
D03*
Y99409D02*
D03*
X163051D02*
D03*
Y90551D02*
D03*
X155847D02*
D03*
X163051Y82480D02*
D03*
X155847D02*
D03*
Y75000D02*
D03*
X163051D02*
D03*
Y66437D02*
D03*
X155847D02*
D03*
X163051Y58704D02*
D03*
X155847D02*
D03*
Y51224D02*
D03*
X163051D02*
D03*
X193537Y52165D02*
D03*
X53681Y66634D02*
D03*
X200742Y52165D02*
D03*
X53681Y74606D02*
D03*
X60886D02*
D03*
Y66634D02*
D03*
D73*
X74016Y49213D02*
D03*
X89370Y42323D02*
D03*
Y56102D02*
D03*
D74*
X104455Y46542D02*
D03*
X117329D02*
D03*
X104488Y37402D02*
D03*
X117362D02*
D03*
D75*
X143782Y133779D02*
D03*
Y127086D02*
D03*
X243770Y82924D02*
D03*
Y76231D02*
D03*
X206398Y100098D02*
D03*
X127953Y100265D02*
D03*
X120323D02*
D03*
X110925Y70170D02*
D03*
X214961Y93405D02*
D03*
X206398D02*
D03*
X127953Y106958D02*
D03*
X120323D02*
D03*
X110925Y76863D02*
D03*
X214961Y100098D02*
D03*
D76*
X213878Y19980D02*
D03*
X179823Y43012D02*
D03*
Y19980D02*
D03*
X213878Y43012D02*
D03*
D77*
X210925Y19980D02*
D03*
X208366D02*
D03*
X205807D02*
D03*
X203248D02*
D03*
X200689D02*
D03*
X198130D02*
D03*
X195571D02*
D03*
X193012D02*
D03*
X190453D02*
D03*
X187894D02*
D03*
X185335D02*
D03*
X182776D02*
D03*
Y43012D02*
D03*
X185335D02*
D03*
X187894D02*
D03*
X190453D02*
D03*
X193012D02*
D03*
X195571D02*
D03*
X198130D02*
D03*
X200689D02*
D03*
X203248D02*
D03*
X208366D02*
D03*
X210925D02*
D03*
X205807D02*
D03*
D78*
X251728Y76398D02*
D03*
Y71398D02*
D03*
Y66398D02*
D03*
Y61398D02*
D03*
X272878D02*
D03*
Y66398D02*
D03*
Y71398D02*
D03*
Y76398D02*
D03*
D79*
X28071Y129921D02*
D03*
X90039D02*
D03*
D80*
X59055D02*
D03*
D81*
X250108Y94833D02*
D03*
X273612D02*
D03*
D82*
X287392Y113238D02*
D03*
Y98671D02*
D03*
D83*
X277018Y137451D02*
D03*
X272687D02*
D03*
X268356D02*
D03*
X259695D02*
D03*
X251033D02*
D03*
X255364D02*
D03*
X264026D02*
D03*
D84*
X246900D02*
D03*
D85*
X242136Y136073D02*
D03*
D86*
X286703Y136959D02*
D03*
D87*
X233828Y136614D02*
D03*
Y129134D02*
D03*
D88*
X45374Y17717D02*
D03*
X99213D02*
D03*
Y8661D02*
D03*
X45374D02*
D03*
X99213Y26772D02*
D03*
X45374D02*
D03*
D89*
X35433Y17717D02*
D03*
X214040Y52165D02*
D03*
X92323Y109252D02*
D03*
X125394Y54316D02*
D03*
X89665Y17717D02*
D03*
X207348Y52165D02*
D03*
X99016Y109252D02*
D03*
X125197Y70465D02*
D03*
X118504Y89560D02*
D03*
Y77432D02*
D03*
X118701Y54316D02*
D03*
X82972Y26772D02*
D03*
Y17717D02*
D03*
X28740D02*
D03*
X28642Y26772D02*
D03*
X89665D02*
D03*
X118504Y70465D02*
D03*
X125197Y77432D02*
D03*
Y89560D02*
D03*
X35335Y26772D02*
D03*
D90*
X224016Y78740D02*
D03*
X223819Y68898D02*
D03*
X214961D02*
D03*
X215158Y78740D02*
D03*
D91*
X25591Y102362D02*
D03*
Y55118D02*
D03*
D92*
X122638Y17717D02*
D03*
X68799D02*
D03*
D93*
X206594Y78740D02*
D03*
Y68898D02*
D03*
M02*
