G04*
G04 #@! TF.GenerationSoftware,Altium Limited,Altium Designer,20.1.8 (145)*
G04*
G04 Layer_Physical_Order=3*
G04 Layer_Color=128*
%FSLAX25Y25*%
%MOIN*%
G70*
G04*
G04 #@! TF.SameCoordinates,34700BE4-7B1B-4339-AD5F-997C77E8816B*
G04*
G04*
G04 #@! TF.FilePolarity,Negative*
G04*
G01*
G75*
%ADD17C,0.00800*%
%ADD58C,0.15000*%
%ADD61C,0.04000*%
G04:AMPARAMS|DCode=63|XSize=72mil|YSize=72mil|CornerRadius=0mil|HoleSize=0mil|Usage=FLASHONLY|Rotation=0.000|XOffset=0mil|YOffset=0mil|HoleType=Round|Shape=Relief|Width=10mil|Gap=10mil|Entries=4|*
%AMTHD63*
7,0,0,0.07200,0.05200,0.01000,45*
%
%ADD63THD63*%
%ADD65C,0.05200*%
G04:AMPARAMS|DCode=66|XSize=79.685mil|YSize=79.685mil|CornerRadius=0mil|HoleSize=0mil|Usage=FLASHONLY|Rotation=0.000|XOffset=0mil|YOffset=0mil|HoleType=Round|Shape=Relief|Width=10mil|Gap=10mil|Entries=4|*
%AMTHD66*
7,0,0,0.07969,0.05969,0.01000,45*
%
%ADD66THD66*%
D17*
X164370Y156D02*
Y22638D01*
X157480Y29528D01*
X44291D01*
X34941Y38878D01*
Y119587D01*
X39415Y124061D02*
X34941Y119587D01*
X247494Y124061D02*
X39415D01*
X263287Y108268D02*
X247494Y124061D01*
X263287Y36909D02*
Y108268D01*
Y36909D02*
X255906Y29528D01*
Y0D02*
Y29528D01*
D58*
X9843Y147638D02*
D03*
Y9843D02*
D03*
X305118Y147638D02*
D03*
Y9843D02*
D03*
D61*
X309961Y0D02*
X310936Y96D01*
X311874Y381D01*
X312738Y843D01*
X313496Y1464D01*
X314118Y2222D01*
X314580Y3087D01*
X314865Y4025D01*
X314961Y5000D01*
Y152480D02*
X314865Y153456D01*
X314580Y154394D01*
X314118Y155258D01*
X313496Y156016D01*
X312738Y156638D01*
X311874Y157100D01*
X310936Y157384D01*
X309961Y157480D01*
X5000D02*
X4025Y157384D01*
X3087Y157100D01*
X2222Y156638D01*
X1464Y156016D01*
X843Y155258D01*
X381Y154394D01*
X96Y153456D01*
X-0Y152480D01*
Y5000D02*
X96Y4025D01*
X381Y3087D01*
X843Y2222D01*
X1464Y1464D01*
X2222Y843D01*
X3087Y381D01*
X4025Y96D01*
X5000Y0D01*
X309961D02*
X5000D01*
X-0Y5000D02*
Y152480D01*
X309961Y157480D02*
X5000D01*
X314961Y5000D02*
Y152480D01*
D63*
X182136Y73786D02*
D03*
X86905Y70695D02*
D03*
X63194Y79118D02*
D03*
X95585Y43127D02*
D03*
X170768Y121555D02*
D03*
X199929Y150666D02*
D03*
X112034Y63976D02*
D03*
X243059Y131890D02*
D03*
X269587Y37418D02*
D03*
X165845Y126970D02*
D03*
X133366Y119587D02*
D03*
X286221Y66634D02*
D03*
X80968Y118973D02*
D03*
X96126Y105643D02*
D03*
X114615Y98057D02*
D03*
X75668Y95273D02*
D03*
X74276Y126969D02*
D03*
X32273Y131890D02*
D03*
X115994Y131890D02*
D03*
X39052Y25591D02*
D03*
X76514D02*
D03*
X114666D02*
D03*
X152758D02*
D03*
X202238Y88314D02*
D03*
X190945Y95472D02*
D03*
X228346Y109252D02*
D03*
X185925Y58351D02*
D03*
X190945Y82185D02*
D03*
X204035Y64831D02*
D03*
X260974Y22638D02*
D03*
Y12795D02*
D03*
Y17717D02*
D03*
X207136D02*
D03*
Y12795D02*
D03*
Y22638D02*
D03*
D65*
X17586Y129283D02*
D03*
X10086Y114284D02*
D03*
X17586Y99283D02*
D03*
X10086Y54283D02*
D03*
X17586Y39283D02*
D03*
X10086Y24284D02*
D03*
X32587Y99283D02*
D03*
X25087Y84284D02*
D03*
X32587Y69283D02*
D03*
X25087Y54283D02*
D03*
X32587Y39283D02*
D03*
X25087Y24284D02*
D03*
X40086Y144283D02*
D03*
Y54283D02*
D03*
X47587Y39283D02*
D03*
X62586Y99283D02*
D03*
Y39283D02*
D03*
X55086Y24284D02*
D03*
X77587Y39283D02*
D03*
Y9284D02*
D03*
X85087Y144283D02*
D03*
X92586Y129283D02*
D03*
X85087Y84284D02*
D03*
Y24284D02*
D03*
X100086Y144283D02*
D03*
X107587Y129283D02*
D03*
X100086Y84284D02*
D03*
X115087Y144283D02*
D03*
X122587Y9284D02*
D03*
X130087Y144283D02*
D03*
X137587Y129283D02*
D03*
X130087Y114284D02*
D03*
X137587Y69283D02*
D03*
X130087Y54283D02*
D03*
X145087Y144283D02*
D03*
Y54283D02*
D03*
X152587Y9284D02*
D03*
X160087Y144283D02*
D03*
X167587Y69283D02*
D03*
X175087Y144283D02*
D03*
Y114284D02*
D03*
Y24284D02*
D03*
X190087Y114284D02*
D03*
X205086D02*
D03*
X212586Y69283D02*
D03*
X220087Y114284D02*
D03*
X227587Y69283D02*
D03*
X242586Y99283D02*
D03*
X235086Y84284D02*
D03*
X242586Y69283D02*
D03*
X235086Y54283D02*
D03*
X242586Y39283D02*
D03*
Y9284D02*
D03*
X257587Y69283D02*
D03*
X250086Y54283D02*
D03*
X257587Y39283D02*
D03*
X272586Y129283D02*
D03*
Y99283D02*
D03*
X265087Y84284D02*
D03*
Y54283D02*
D03*
X272586Y39283D02*
D03*
X280086Y144283D02*
D03*
X287586Y69283D02*
D03*
Y9284D02*
D03*
X295087Y144283D02*
D03*
X302587Y129283D02*
D03*
X295087Y114284D02*
D03*
Y84284D02*
D03*
X302587Y69283D02*
D03*
Y39283D02*
D03*
X181844Y65080D02*
D03*
X227461Y88090D02*
D03*
X177579Y83222D02*
D03*
X204852Y149572D02*
D03*
X209887Y147364D02*
D03*
X248062Y146946D02*
D03*
X252875Y146910D02*
D03*
X155512Y119587D02*
D03*
X136319Y82390D02*
D03*
X115650Y69940D02*
D03*
X190945Y38386D02*
D03*
X86700Y76181D02*
D03*
X80752Y78216D02*
D03*
X84140Y79118D02*
D03*
X62008Y83310D02*
D03*
X105315Y38386D02*
D03*
X107613Y47379D02*
D03*
X138092Y90551D02*
D03*
X146659Y113681D02*
D03*
X146251Y63348D02*
D03*
X120966Y89001D02*
D03*
X142060Y106595D02*
D03*
X190692Y45849D02*
D03*
X25041Y71332D02*
D03*
X250984Y102362D02*
D03*
X213545Y130834D02*
D03*
X84457Y108986D02*
D03*
X46694Y121186D02*
D03*
X57379Y121482D02*
D03*
X63928Y121349D02*
D03*
X180021Y89706D02*
D03*
X196260Y64831D02*
D03*
X183954Y77756D02*
D03*
X13780Y104331D02*
D03*
X56318Y109252D02*
D03*
X116045D02*
D03*
X116861Y104157D02*
D03*
X96132Y85977D02*
D03*
X26991Y76181D02*
D03*
X96845Y89001D02*
D03*
X29528Y78740D02*
D03*
X197423Y27748D02*
D03*
X215551Y37402D02*
D03*
X81384Y50678D02*
D03*
X81183Y46220D02*
D03*
X80025Y60887D02*
D03*
X76463Y60196D02*
D03*
X213583Y73532D02*
D03*
X81133Y105643D02*
D03*
X213583Y92621D02*
D03*
X203150Y92760D02*
D03*
X214665Y62008D02*
D03*
X250000Y29921D02*
D03*
X44291Y7795D02*
D03*
X81693Y8858D02*
D03*
X120079Y6890D02*
D03*
X157480Y12795D02*
D03*
X115650Y77756D02*
D03*
D66*
X202197Y54134D02*
D03*
M02*
