G04*
G04 #@! TF.GenerationSoftware,Altium Limited,Altium Designer,20.1.8 (145)*
G04*
G04 Layer_Color=8388736*
%FSLAX25Y25*%
%MOIN*%
G70*
G04*
G04 #@! TF.SameCoordinates,34700BE4-7B1B-4339-AD5F-997C77E8816B*
G04*
G04*
G04 #@! TF.FilePolarity,Positive*
G04*
G01*
G75*
%ADD17C,0.00800*%
D17*
X0Y5000D02*
X96Y4025D01*
X381Y3087D01*
X843Y2222D01*
X1464Y1464D01*
X2222Y843D01*
X3087Y381D01*
X4025Y96D01*
X5000Y0D01*
Y157480D02*
X4025Y157384D01*
X3087Y157100D01*
X2222Y156638D01*
X1464Y156016D01*
X843Y155258D01*
X381Y154394D01*
X96Y153456D01*
X0Y152480D01*
X314961D02*
X314865Y153456D01*
X314580Y154394D01*
X314118Y155258D01*
X313496Y156016D01*
X312738Y156638D01*
X311874Y157100D01*
X310936Y157384D01*
X309961Y157480D01*
Y0D02*
X310936Y96D01*
X311874Y381D01*
X312738Y843D01*
X313496Y1464D01*
X314118Y2222D01*
X314580Y3087D01*
X314865Y4025D01*
X314961Y5000D01*
X9843Y0D02*
X231221D01*
X5000D02*
X9843D01*
X0Y5000D02*
Y152480D01*
X5000Y157480D02*
X309961D01*
X314961Y5000D02*
Y152480D01*
X231221Y0D02*
X309961D01*
M02*
