M48
;Layer_Color=9474304
;FILE_FORMAT=2:5
INCH,TZ
;TYPE=PLATED
T1F00S00C0.01200
T2F00S00C0.01968
T3F00S00C0.11000
%
T01
X233268Y8858
X237374Y9284
X238446Y25591
X229874Y24284
X237374Y39283
X233778Y46220
X233576Y50678
X234935Y60887
X238498Y60196
X228056Y70695
X228260Y76181
X230821Y79118
X234209Y78216
X229874Y84284
X218829Y85977
X218115Y89001
X214874Y84284
X218835Y105643
X233828
X230503Y108986
X233992Y118973
X240685Y126969
X251033Y121349
X257582Y121482
X268267Y121186
X258643Y109252
X252374Y99283
X252953Y83310
X251766Y79118
X239293Y95273
X282374Y99283
X297374
X301181Y104331
X304874Y114284
X297374Y129283
X282687Y131890
X274874Y144283
X229874
X214874
X222374Y129283
X207374
X207348Y47379
X209646Y38386
X219376Y43127
X252374Y39283
X267374
X282374
X297374
X304874Y54283
X289874
X274874
X282374Y69283
X289919Y71332
X287970Y76181
X285433Y78740
X289874Y84284
Y24284
X304874
X275908Y25591
X259874Y24284
X270669Y7795
X194882Y6890
X192374Y9284
X200295Y25591
X162202
X162374Y9284
X157480Y12795
X139874Y24284
X117537Y27748
X107825Y22638
Y17717
Y12795
X99410Y37402
X100295Y62008
X102374Y69283
X101378Y73532
X110925Y64831
X118701
X133116Y65080
X132824Y73786
X131007Y77756
X124016Y82185
X124016Y95472
X111811Y92760
X112722Y88314
X101378Y92621
X87500Y88090
X79874Y84284
X87374Y69283
X72374
X57374
X64874Y54283
X79874
X72374Y39283
X57374
X64961Y29921
X53986Y22638
Y17717
Y12795
X72374Y9284
X49874Y54283
Y84284
X63976Y102362
X72374Y99283
X86614Y109252
X94874Y114284
X109874
X124874
X139874
X144193Y121555
X149115Y126970
X159449Y119587
X168301Y113681
X172901Y106595
X184874Y114284
X181595Y119587
X177374Y129283
X184874Y144283
X199874
X198967Y131890
X198916Y109252
X198100Y104157
X200346Y98057
X193994Y89001
X199311Y77756
Y69940
X202927Y63976
X184874Y54283
X169874
X168710Y63348
X177374Y69283
X178642Y82390
X176868Y90551
X134939Y89706
X137381Y83222
X147374Y69283
X129035Y58351
X124268Y45849
X124016Y38386
X101415Y130834
X105073Y147364
X110108Y149572
X115032Y150666
X139874Y144283
X154874
X169874
X66899Y146946
X62085Y146910
X71902Y131890
X42374Y129283
X34874Y144283
X19874
X12374Y129283
X19874Y114284
Y84284
X27374Y69283
X28740Y66634
X12374Y69283
Y39283
X42374
X45374Y37418
X27374Y9284
X42374Y99283
T02
X112763Y54134
T03
X305118Y9843
Y147638
X9843
Y9843
M30
