G04*
G04 #@! TF.GenerationSoftware,Altium Limited,Altium Designer,20.1.8 (145)*
G04*
G04 Layer_Color=3326705*
%FSLAX25Y25*%
%MOIN*%
G70*
G04*
G04 #@! TF.SameCoordinates,34700BE4-7B1B-4339-AD5F-997C77E8816B*
G04*
G04*
G04 #@! TF.FilePolarity,Positive*
G04*
G01*
G75*
%ADD11C,0.00984*%
%ADD12C,0.01968*%
%ADD16C,0.00472*%
%ADD18C,0.00787*%
%ADD110C,0.00600*%
%ADD111C,0.01201*%
G36*
X33380Y6116D02*
X32959D01*
X31160Y10167D01*
X31593D01*
X33158Y6649D01*
X34712Y10167D01*
X35173D01*
X33380Y6116D01*
D02*
G37*
G36*
X38059Y8136D02*
X37066D01*
X36944Y8125D01*
X36827Y8114D01*
X36722Y8103D01*
X36627Y8086D01*
X36544Y8070D01*
X36466Y8047D01*
X36400Y8031D01*
X36338Y8009D01*
X36289Y7986D01*
X36250Y7970D01*
X36216Y7953D01*
X36189Y7942D01*
X36172Y7931D01*
X36161Y7920D01*
X36155D01*
X36100Y7875D01*
X36050Y7831D01*
X36011Y7781D01*
X35978Y7731D01*
X35922Y7626D01*
X35883Y7526D01*
X35861Y7431D01*
X35856Y7393D01*
X35850Y7359D01*
X35845Y7326D01*
Y7304D01*
Y7293D01*
Y7287D01*
X35850Y7220D01*
X35856Y7154D01*
X35889Y7037D01*
X35933Y6932D01*
X35983Y6849D01*
X36033Y6782D01*
X36078Y6726D01*
X36111Y6699D01*
X36116Y6693D01*
X36122Y6688D01*
X36233Y6610D01*
X36361Y6554D01*
X36488Y6516D01*
X36610Y6488D01*
X36727Y6471D01*
X36771Y6466D01*
X36816D01*
X36849Y6460D01*
X36899D01*
X37038Y6466D01*
X37171Y6482D01*
X37288Y6499D01*
X37393Y6527D01*
X37482Y6549D01*
X37521Y6560D01*
X37554Y6566D01*
X37576Y6577D01*
X37593Y6582D01*
X37604Y6588D01*
X37609D01*
X37726Y6643D01*
X37832Y6699D01*
X37920Y6754D01*
X37998Y6810D01*
X38059Y6860D01*
X38103Y6899D01*
X38131Y6921D01*
X38142Y6932D01*
X38348Y6599D01*
X38253Y6516D01*
X38148Y6438D01*
X38042Y6377D01*
X37942Y6321D01*
X37854Y6277D01*
X37820Y6260D01*
X37787Y6249D01*
X37759Y6238D01*
X37737Y6227D01*
X37726Y6221D01*
X37721D01*
X37571Y6177D01*
X37426Y6144D01*
X37282Y6116D01*
X37154Y6099D01*
X37099Y6094D01*
X37049Y6088D01*
X36999D01*
X36960Y6083D01*
X36888D01*
X36716Y6088D01*
X36560Y6105D01*
X36422Y6133D01*
X36361Y6144D01*
X36305Y6160D01*
X36255Y6177D01*
X36211Y6188D01*
X36172Y6205D01*
X36144Y6216D01*
X36116Y6221D01*
X36100Y6233D01*
X36089Y6238D01*
X36083D01*
X35967Y6305D01*
X35867Y6377D01*
X35778Y6449D01*
X35706Y6516D01*
X35656Y6582D01*
X35617Y6632D01*
X35589Y6665D01*
X35584Y6671D01*
Y6677D01*
X35528Y6782D01*
X35489Y6893D01*
X35456Y6998D01*
X35439Y7098D01*
X35428Y7182D01*
X35423Y7220D01*
X35417Y7248D01*
Y7276D01*
Y7293D01*
Y7304D01*
Y7309D01*
X35423Y7415D01*
X35434Y7509D01*
X35456Y7603D01*
X35478Y7687D01*
X35512Y7764D01*
X35545Y7836D01*
X35584Y7903D01*
X35617Y7964D01*
X35656Y8014D01*
X35695Y8064D01*
X35728Y8103D01*
X35761Y8136D01*
X35783Y8158D01*
X35806Y8175D01*
X35817Y8186D01*
X35822Y8192D01*
X35900Y8247D01*
X35994Y8297D01*
X36089Y8336D01*
X36189Y8375D01*
X36294Y8408D01*
X36405Y8430D01*
X36610Y8469D01*
X36710Y8480D01*
X36805Y8491D01*
X36888Y8497D01*
X36960Y8502D01*
X37021Y8508D01*
X37626D01*
X37487Y9796D01*
X35634D01*
Y10167D01*
X37854D01*
X38059Y8136D01*
D02*
G37*
G36*
X29401Y10195D02*
X29556Y10167D01*
X29701Y10129D01*
X29823Y10084D01*
X29878Y10057D01*
X29923Y10034D01*
X29967Y10012D01*
X30000Y9995D01*
X30028Y9979D01*
X30050Y9968D01*
X30062Y9962D01*
X30067Y9957D01*
X30195Y9857D01*
X30311Y9740D01*
X30411Y9618D01*
X30489Y9507D01*
X30555Y9402D01*
X30578Y9357D01*
X30600Y9318D01*
X30617Y9285D01*
X30628Y9263D01*
X30639Y9246D01*
Y9241D01*
X30705Y9058D01*
X30755Y8874D01*
X30794Y8686D01*
X30816Y8519D01*
X30827Y8436D01*
X30833Y8369D01*
X30839Y8303D01*
Y8247D01*
X30844Y8203D01*
Y8169D01*
Y8147D01*
Y8142D01*
X30833Y7914D01*
X30827Y7803D01*
X30811Y7703D01*
X30794Y7609D01*
X30777Y7515D01*
X30761Y7431D01*
X30739Y7354D01*
X30722Y7287D01*
X30705Y7226D01*
X30689Y7170D01*
X30672Y7126D01*
X30655Y7093D01*
X30650Y7065D01*
X30639Y7048D01*
Y7043D01*
X30555Y6876D01*
X30461Y6732D01*
X30367Y6610D01*
X30278Y6510D01*
X30233Y6466D01*
X30195Y6432D01*
X30156Y6399D01*
X30128Y6371D01*
X30100Y6355D01*
X30084Y6338D01*
X30073Y6332D01*
X30067Y6327D01*
X29995Y6283D01*
X29923Y6249D01*
X29778Y6188D01*
X29640Y6144D01*
X29506Y6116D01*
X29451Y6105D01*
X29395Y6094D01*
X29346Y6088D01*
X29307D01*
X29273Y6083D01*
X29229D01*
X29140Y6088D01*
X29057Y6094D01*
X28901Y6121D01*
X28757Y6160D01*
X28635Y6205D01*
X28580Y6227D01*
X28530Y6249D01*
X28491Y6271D01*
X28457Y6288D01*
X28430Y6305D01*
X28408Y6316D01*
X28396Y6327D01*
X28391D01*
X28263Y6427D01*
X28147Y6543D01*
X28047Y6665D01*
X27969Y6776D01*
X27902Y6882D01*
X27880Y6926D01*
X27858Y6965D01*
X27841Y6998D01*
X27830Y7021D01*
X27819Y7037D01*
Y7043D01*
X27747Y7226D01*
X27697Y7409D01*
X27658Y7598D01*
X27636Y7770D01*
X27625Y7848D01*
X27619Y7920D01*
X27614Y7981D01*
Y8036D01*
X27608Y8081D01*
Y8114D01*
Y8136D01*
Y8142D01*
X27619Y8369D01*
X27625Y8480D01*
X27642Y8580D01*
X27658Y8675D01*
X27675Y8769D01*
X27692Y8852D01*
X27714Y8930D01*
X27736Y8996D01*
X27753Y9058D01*
X27769Y9113D01*
X27786Y9157D01*
X27797Y9196D01*
X27808Y9218D01*
X27819Y9235D01*
Y9241D01*
X27902Y9407D01*
X27997Y9551D01*
X28091Y9674D01*
X28180Y9773D01*
X28224Y9818D01*
X28263Y9851D01*
X28302Y9884D01*
X28330Y9912D01*
X28358Y9929D01*
X28374Y9945D01*
X28385Y9957D01*
X28391D01*
X28463Y10001D01*
X28530Y10040D01*
X28674Y10101D01*
X28818Y10145D01*
X28946Y10173D01*
X29007Y10184D01*
X29063Y10195D01*
X29107Y10201D01*
X29151D01*
X29185Y10206D01*
X29318D01*
X29401Y10195D01*
D02*
G37*
G36*
X86905Y6116D02*
X86484D01*
X84685Y10167D01*
X85118D01*
X86683Y6649D01*
X88237Y10167D01*
X88698D01*
X86905Y6116D01*
D02*
G37*
G36*
X91767Y9796D02*
X89692D01*
X90818Y8392D01*
Y8081D01*
X90424D01*
X90330Y8070D01*
X90246Y8059D01*
X90163Y8047D01*
X90091Y8031D01*
X90025Y8014D01*
X89963Y7992D01*
X89908Y7975D01*
X89858Y7953D01*
X89819Y7931D01*
X89780Y7914D01*
X89753Y7897D01*
X89730Y7886D01*
X89714Y7875D01*
X89708Y7864D01*
X89703D01*
X89653Y7825D01*
X89614Y7781D01*
X89575Y7731D01*
X89547Y7681D01*
X89497Y7587D01*
X89464Y7492D01*
X89447Y7409D01*
X89436Y7370D01*
Y7337D01*
X89431Y7315D01*
Y7293D01*
Y7282D01*
Y7276D01*
X89436Y7204D01*
X89442Y7143D01*
X89475Y7021D01*
X89514Y6921D01*
X89564Y6832D01*
X89614Y6765D01*
X89658Y6715D01*
X89692Y6688D01*
X89697Y6677D01*
X89703D01*
X89814Y6604D01*
X89936Y6549D01*
X90063Y6516D01*
X90191Y6488D01*
X90302Y6471D01*
X90352Y6466D01*
X90391D01*
X90424Y6460D01*
X90474D01*
X90613Y6466D01*
X90746Y6482D01*
X90868Y6499D01*
X90979Y6527D01*
X91068Y6549D01*
X91107Y6560D01*
X91135Y6566D01*
X91162Y6577D01*
X91179Y6582D01*
X91190Y6588D01*
X91195D01*
X91312Y6643D01*
X91417Y6699D01*
X91512Y6754D01*
X91590Y6810D01*
X91651Y6860D01*
X91695Y6899D01*
X91723Y6921D01*
X91734Y6932D01*
X91934Y6599D01*
X91839Y6516D01*
X91734Y6438D01*
X91628Y6377D01*
X91528Y6321D01*
X91440Y6277D01*
X91406Y6260D01*
X91373Y6249D01*
X91345Y6238D01*
X91323Y6227D01*
X91312Y6221D01*
X91307D01*
X91157Y6177D01*
X91012Y6144D01*
X90868Y6116D01*
X90740Y6099D01*
X90685Y6094D01*
X90635Y6088D01*
X90585D01*
X90546Y6083D01*
X90474D01*
X90302Y6088D01*
X90147Y6105D01*
X90008Y6133D01*
X89947Y6144D01*
X89891Y6160D01*
X89841Y6177D01*
X89797Y6188D01*
X89758Y6205D01*
X89730Y6216D01*
X89703Y6221D01*
X89686Y6233D01*
X89675Y6238D01*
X89669D01*
X89553Y6299D01*
X89453Y6371D01*
X89364Y6438D01*
X89292Y6510D01*
X89242Y6566D01*
X89203Y6616D01*
X89175Y6649D01*
X89170Y6654D01*
Y6660D01*
X89114Y6765D01*
X89075Y6871D01*
X89042Y6976D01*
X89025Y7071D01*
X89014Y7154D01*
X89009Y7187D01*
X89003Y7220D01*
Y7243D01*
Y7259D01*
Y7270D01*
Y7276D01*
X89009Y7370D01*
X89020Y7453D01*
X89037Y7537D01*
X89053Y7615D01*
X89109Y7753D01*
X89136Y7814D01*
X89170Y7870D01*
X89203Y7920D01*
X89231Y7964D01*
X89259Y7997D01*
X89286Y8031D01*
X89303Y8053D01*
X89320Y8070D01*
X89331Y8081D01*
X89336Y8086D01*
X89403Y8142D01*
X89475Y8192D01*
X89547Y8236D01*
X89630Y8269D01*
X89791Y8330D01*
X89947Y8375D01*
X90019Y8392D01*
X90086Y8403D01*
X90147Y8414D01*
X90202Y8419D01*
X90246Y8425D01*
X90280Y8430D01*
X90307D01*
X89159Y9873D01*
Y10167D01*
X91767D01*
Y9796D01*
D02*
G37*
G36*
X84452D02*
X82377D01*
X83503Y8392D01*
Y8081D01*
X83109D01*
X83015Y8070D01*
X82932Y8059D01*
X82848Y8047D01*
X82776Y8031D01*
X82710Y8014D01*
X82648Y7992D01*
X82593Y7975D01*
X82543Y7953D01*
X82504Y7931D01*
X82465Y7914D01*
X82438Y7897D01*
X82415Y7886D01*
X82399Y7875D01*
X82393Y7864D01*
X82388D01*
X82338Y7825D01*
X82299Y7781D01*
X82260Y7731D01*
X82232Y7681D01*
X82182Y7587D01*
X82149Y7492D01*
X82132Y7409D01*
X82121Y7370D01*
Y7337D01*
X82116Y7315D01*
Y7293D01*
Y7282D01*
Y7276D01*
X82121Y7204D01*
X82127Y7143D01*
X82160Y7021D01*
X82199Y6921D01*
X82249Y6832D01*
X82299Y6765D01*
X82343Y6715D01*
X82377Y6688D01*
X82382Y6677D01*
X82388D01*
X82499Y6604D01*
X82621Y6549D01*
X82748Y6516D01*
X82876Y6488D01*
X82987Y6471D01*
X83037Y6466D01*
X83076D01*
X83109Y6460D01*
X83159D01*
X83298Y6466D01*
X83431Y6482D01*
X83553Y6499D01*
X83664Y6527D01*
X83753Y6549D01*
X83792Y6560D01*
X83820Y6566D01*
X83847Y6577D01*
X83864Y6582D01*
X83875Y6588D01*
X83881D01*
X83997Y6643D01*
X84103Y6699D01*
X84197Y6754D01*
X84275Y6810D01*
X84336Y6860D01*
X84380Y6899D01*
X84408Y6921D01*
X84419Y6932D01*
X84619Y6599D01*
X84524Y6516D01*
X84419Y6438D01*
X84313Y6377D01*
X84214Y6321D01*
X84125Y6277D01*
X84092Y6260D01*
X84058Y6249D01*
X84030Y6238D01*
X84008Y6227D01*
X83997Y6221D01*
X83992D01*
X83842Y6177D01*
X83697Y6144D01*
X83553Y6116D01*
X83425Y6099D01*
X83370Y6094D01*
X83320Y6088D01*
X83270D01*
X83231Y6083D01*
X83159D01*
X82987Y6088D01*
X82832Y6105D01*
X82693Y6133D01*
X82632Y6144D01*
X82576Y6160D01*
X82526Y6177D01*
X82482Y6188D01*
X82443Y6205D01*
X82415Y6216D01*
X82388Y6221D01*
X82371Y6233D01*
X82360Y6238D01*
X82354D01*
X82238Y6299D01*
X82138Y6371D01*
X82049Y6438D01*
X81977Y6510D01*
X81927Y6566D01*
X81888Y6616D01*
X81860Y6649D01*
X81855Y6654D01*
Y6660D01*
X81799Y6765D01*
X81761Y6871D01*
X81727Y6976D01*
X81711Y7071D01*
X81700Y7154D01*
X81694Y7187D01*
X81688Y7220D01*
Y7243D01*
Y7259D01*
Y7270D01*
Y7276D01*
X81694Y7370D01*
X81705Y7453D01*
X81722Y7537D01*
X81738Y7615D01*
X81794Y7753D01*
X81822Y7814D01*
X81855Y7870D01*
X81888Y7920D01*
X81916Y7964D01*
X81944Y7997D01*
X81971Y8031D01*
X81988Y8053D01*
X82005Y8070D01*
X82016Y8081D01*
X82021Y8086D01*
X82088Y8142D01*
X82160Y8192D01*
X82232Y8236D01*
X82315Y8269D01*
X82477Y8330D01*
X82632Y8375D01*
X82704Y8392D01*
X82771Y8403D01*
X82832Y8414D01*
X82887Y8419D01*
X82932Y8425D01*
X82965Y8430D01*
X82993D01*
X81844Y9873D01*
Y10167D01*
X84452D01*
Y9796D01*
D02*
G37*
G36*
X84665Y64869D02*
Y63682D01*
X74021Y63348D01*
Y65181D01*
X84665Y64869D01*
D02*
G37*
G36*
X88372Y65390D02*
X88518Y65348D01*
X88664Y65306D01*
X88768Y65244D01*
X88872Y65181D01*
X88935Y65119D01*
X88977Y65098D01*
X88997Y65077D01*
X89101Y64952D01*
X89185Y64806D01*
X89247Y64681D01*
X89289Y64536D01*
X89310Y64432D01*
X89331Y64348D01*
Y64265D01*
X89310Y64098D01*
X89268Y63932D01*
X89227Y63807D01*
X89164Y63682D01*
X89101Y63577D01*
X89039Y63515D01*
X89018Y63473D01*
X88997Y63452D01*
X88872Y63348D01*
X88727Y63265D01*
X88602Y63203D01*
X88477Y63161D01*
X88372Y63140D01*
X88289Y63119D01*
X88227D01*
X88206D01*
X88039Y63140D01*
X87873Y63161D01*
X87748Y63223D01*
X87623Y63286D01*
X87539Y63348D01*
X87477Y63390D01*
X87435Y63432D01*
X87414Y63452D01*
X87310Y63577D01*
X87227Y63723D01*
X87185Y63848D01*
X87143Y63973D01*
X87123Y64098D01*
X87102Y64182D01*
Y64265D01*
X87123Y64452D01*
X87143Y64598D01*
X87206Y64744D01*
X87248Y64869D01*
X87310Y64973D01*
X87373Y65035D01*
X87393Y65077D01*
X87414Y65098D01*
X87539Y65202D01*
X87664Y65285D01*
X87810Y65327D01*
X87935Y65369D01*
X88039Y65390D01*
X88122Y65411D01*
X88185D01*
X88206D01*
X88372Y65390D01*
D02*
G37*
%LPC*%
G36*
X29262Y9823D02*
X29229D01*
X29101Y9812D01*
X28979Y9790D01*
X28874Y9762D01*
X28785Y9724D01*
X28713Y9685D01*
X28652Y9657D01*
X28635Y9640D01*
X28618Y9635D01*
X28613Y9624D01*
X28607D01*
X28513Y9546D01*
X28424Y9452D01*
X28352Y9357D01*
X28297Y9263D01*
X28247Y9180D01*
X28230Y9146D01*
X28213Y9113D01*
X28202Y9091D01*
X28191Y9069D01*
X28186Y9058D01*
Y9052D01*
X28136Y8902D01*
X28097Y8752D01*
X28075Y8597D01*
X28052Y8458D01*
X28047Y8392D01*
X28041Y8330D01*
Y8275D01*
X28036Y8230D01*
Y8192D01*
Y8164D01*
Y8147D01*
Y8142D01*
X28041Y7948D01*
X28058Y7775D01*
X28069Y7692D01*
X28086Y7620D01*
X28097Y7548D01*
X28108Y7487D01*
X28124Y7431D01*
X28136Y7381D01*
X28152Y7337D01*
X28163Y7298D01*
X28169Y7270D01*
X28180Y7248D01*
X28186Y7237D01*
Y7231D01*
X28247Y7098D01*
X28313Y6982D01*
X28385Y6882D01*
X28452Y6804D01*
X28513Y6738D01*
X28563Y6693D01*
X28596Y6665D01*
X28602Y6654D01*
X28607D01*
X28713Y6588D01*
X28818Y6543D01*
X28918Y6510D01*
X29018Y6482D01*
X29101Y6471D01*
X29140Y6466D01*
X29168D01*
X29196Y6460D01*
X29229D01*
X29357Y6471D01*
X29479Y6493D01*
X29584Y6521D01*
X29673Y6560D01*
X29751Y6593D01*
X29806Y6627D01*
X29828Y6638D01*
X29845Y6649D01*
X29851Y6654D01*
X29856D01*
X29950Y6738D01*
X30034Y6826D01*
X30106Y6926D01*
X30161Y7021D01*
X30211Y7104D01*
X30228Y7137D01*
X30245Y7170D01*
X30256Y7198D01*
X30267Y7215D01*
X30272Y7226D01*
Y7231D01*
X30322Y7381D01*
X30361Y7531D01*
X30383Y7687D01*
X30406Y7831D01*
X30411Y7892D01*
X30417Y7953D01*
Y8009D01*
X30422Y8053D01*
Y8092D01*
Y8119D01*
Y8136D01*
Y8142D01*
X30417Y8336D01*
X30400Y8508D01*
X30389Y8591D01*
X30372Y8663D01*
X30361Y8736D01*
X30345Y8797D01*
X30333Y8852D01*
X30322Y8902D01*
X30306Y8946D01*
X30295Y8985D01*
X30283Y9013D01*
X30278Y9035D01*
X30272Y9046D01*
Y9052D01*
X30211Y9185D01*
X30145Y9302D01*
X30073Y9402D01*
X30006Y9479D01*
X29950Y9540D01*
X29901Y9590D01*
X29867Y9612D01*
X29862Y9624D01*
X29856D01*
X29751Y9690D01*
X29645Y9740D01*
X29540Y9773D01*
X29440Y9801D01*
X29357Y9812D01*
X29318Y9818D01*
X29290D01*
X29262Y9823D01*
D02*
G37*
%LPD*%
D11*
X115481Y127185D02*
X114742Y127611D01*
Y126758D01*
X115481Y127185D01*
X104947Y41975D02*
X104209Y42401D01*
Y41549D01*
X104947Y41975D01*
X214370Y15157D02*
X213632Y15584D01*
Y14731D01*
X214370Y15157D01*
X279600Y76480D02*
X278862Y76907D01*
Y76054D01*
X279600Y76480D01*
X277510Y141781D02*
X276772Y142208D01*
Y141355D01*
X277510Y141781D01*
X104980Y32835D02*
X104242Y33261D01*
Y32408D01*
X104980Y32835D01*
D12*
X213878Y27854D02*
X213386Y28707D01*
X212402D01*
X211910Y27854D01*
X212402Y27002D01*
X213386D01*
X213878Y27854D01*
D16*
X90177Y77008D02*
Y78898D01*
X84823Y77008D02*
Y78898D01*
X141732Y61106D02*
X147638D01*
X141732Y57070D02*
Y61106D01*
Y48822D02*
X147638D01*
X141732D02*
Y52858D01*
X147638Y60810D02*
X150571D01*
X141732Y84882D02*
X147638D01*
X141732Y80847D02*
Y84882D01*
Y72598D02*
X147638D01*
X141732D02*
Y76634D01*
X147638Y84587D02*
X150571D01*
X141732Y108996D02*
X147638D01*
X141732Y104961D02*
Y108996D01*
Y96713D02*
X147638D01*
X141732D02*
Y100748D01*
X147638Y108701D02*
X150571D01*
X158504Y116358D02*
X160394D01*
X158504Y111004D02*
X160394D01*
X158504Y109272D02*
X160394D01*
X158504Y103917D02*
X160394D01*
X158504Y96732D02*
X160394D01*
X158504Y102087D02*
X160394D01*
X158504Y93228D02*
X160394D01*
X158504Y87874D02*
X160394D01*
X158504Y85158D02*
X160394D01*
X158504Y79803D02*
X160394D01*
X158504Y72323D02*
X160394D01*
X158504Y77677D02*
X160394D01*
X158504Y69114D02*
X160394D01*
X158504Y63760D02*
X160394D01*
X158504Y61381D02*
X160394D01*
X158504Y56027D02*
X160394D01*
X158504Y48547D02*
X160394D01*
X158504Y53901D02*
X160394D01*
X86811Y45000D02*
Y53425D01*
X76575Y51890D02*
Y61024D01*
X86811Y37402D02*
Y39646D01*
Y58780D02*
Y61024D01*
X76575D02*
X86811D01*
X76575Y37402D02*
Y46535D01*
Y37402D02*
X86811D01*
X103642Y29350D02*
Y30906D01*
X118209D01*
Y24921D02*
Y30906D01*
X103642Y4528D02*
Y6083D01*
Y4528D02*
X118209D01*
Y10512D01*
X95768Y6083D02*
X103642D01*
X49803Y29350D02*
Y30906D01*
X64370D01*
Y24921D02*
Y30906D01*
X49803Y4528D02*
Y6083D01*
Y4528D02*
X64370D01*
Y10512D01*
X41929Y6083D02*
X49803D01*
X196195Y49488D02*
X198085D01*
X196195Y54843D02*
X198085D01*
X55020Y80276D02*
X60925D01*
Y84311D01*
X55020Y92559D02*
X60925D01*
Y88524D02*
Y92559D01*
X52087Y80571D02*
X55020D01*
X56339Y71929D02*
X58228D01*
X56339Y77284D02*
X58228D01*
X56339Y69311D02*
X58228D01*
X56339Y63957D02*
X58228D01*
X234469Y95807D02*
Y97697D01*
X229114Y95807D02*
Y97697D01*
X226496Y95807D02*
Y97697D01*
X221142Y95807D02*
Y97697D01*
D18*
X245957Y133707D02*
X246651Y133130D01*
X247530Y132923D01*
X277687D02*
X278596Y133146D01*
X279299Y133763D01*
X267669Y132923D02*
X268062Y132529D01*
X257432D02*
X257826Y132923D01*
X281624Y138435D02*
X280267Y137892D01*
X257039Y132923D02*
X257432Y132529D01*
X268062D02*
X268456Y132923D01*
X119516Y123937D02*
X135658D01*
Y138897D02*
Y140078D01*
Y123937D02*
Y125118D01*
X119516Y140078D02*
X135658D01*
X119516Y138897D02*
Y140078D01*
Y123937D02*
Y125118D01*
X107821Y43294D02*
Y49790D01*
X113963D01*
Y43294D02*
Y49790D01*
X107821Y43294D02*
X113963D01*
X216142Y24606D02*
Y38386D01*
X177559D02*
X216142D01*
X177559Y24606D02*
Y38386D01*
Y24606D02*
X216142D01*
X256522Y59098D02*
X268085D01*
X256522Y78697D02*
X268085D01*
X281624Y138435D02*
X282077D01*
X288293Y116781D02*
Y132726D01*
X288317Y102215D02*
Y109695D01*
X268456Y132923D02*
X277687D01*
X241270Y94813D02*
X241742D01*
X247530Y132923D02*
X257039D01*
X288317Y94813D02*
Y95128D01*
X278927Y93553D02*
X287116D01*
X241742D02*
X243730D01*
X241270Y94813D02*
Y130955D01*
X241742Y93553D02*
Y94813D01*
X255423Y93553D02*
X268297D01*
X287116D02*
X287844D01*
Y94813D02*
X288317D01*
X287844Y93553D02*
Y94813D01*
X243730Y93553D02*
X244793D01*
X257826Y132923D02*
X267669D01*
X107854Y34154D02*
Y40650D01*
X113996D01*
Y34154D02*
Y40650D01*
X107854Y34154D02*
X113996D01*
X203642Y72441D02*
Y75197D01*
X209547Y72441D02*
Y75197D01*
X218602Y66240D02*
X220177D01*
X218602Y71555D02*
X220177D01*
X218799Y76083D02*
X220374D01*
X218799Y81398D02*
X220374D01*
D110*
X82677Y129921D02*
X82656Y130924D01*
X82592Y131924D01*
X82486Y132922D01*
X82337Y133913D01*
X82147Y134898D01*
X81915Y135873D01*
X81642Y136838D01*
X81328Y137791D01*
X80974Y138729D01*
X80580Y139651D01*
X80148Y140556D01*
X79677Y141442D01*
X79170Y142306D01*
X78626Y143149D01*
X78047Y143968D01*
X77434Y144761D01*
X76788Y145528D01*
X76109Y146266D01*
X75400Y146975D01*
X74662Y147654D01*
X73895Y148300D01*
X73102Y148913D01*
X72283Y149492D01*
X71440Y150036D01*
X70575Y150544D01*
X69690Y151014D01*
X68785Y151446D01*
X67863Y151840D01*
X66925Y152194D01*
X65972Y152508D01*
X65007Y152781D01*
X64032Y153013D01*
X63047Y153203D01*
X62055Y153352D01*
X61058Y153458D01*
X60058Y153522D01*
X59055Y153543D01*
X58053Y153522D01*
X57052Y153458D01*
X56055Y153352D01*
X55063Y153203D01*
X54078Y153013D01*
X53103Y152781D01*
X52138Y152508D01*
X51186Y152194D01*
X50248Y151840D01*
X49325Y151446D01*
X48420Y151014D01*
X47535Y150544D01*
X46670Y150036D01*
X45827Y149492D01*
X45009Y148913D01*
X44215Y148300D01*
X43449Y147654D01*
X42710Y146975D01*
X42001Y146266D01*
X41323Y145528D01*
X40676Y144761D01*
X40063Y143968D01*
X39484Y143149D01*
X38940Y142306D01*
X38433Y141442D01*
X37962Y140556D01*
X37530Y139651D01*
X37137Y138729D01*
X36782Y137791D01*
X36468Y136838D01*
X36195Y135873D01*
X35963Y134898D01*
X35773Y133913D01*
X35624Y132922D01*
X35518Y131924D01*
X35454Y130924D01*
X35433Y129921D01*
X35454Y128919D01*
X35518Y127918D01*
X35624Y126921D01*
X35773Y125929D01*
X35963Y124944D01*
X36195Y123969D01*
X36468Y123004D01*
X36782Y122052D01*
X37137Y121114D01*
X37530Y120191D01*
X37962Y119287D01*
X38433Y118401D01*
X38940Y117536D01*
X39484Y116693D01*
X40063Y115875D01*
X40676Y115081D01*
X41323Y114315D01*
X42001Y113576D01*
X42710Y112867D01*
X43449Y112189D01*
X44215Y111542D01*
X45009Y110929D01*
X45827Y110350D01*
X46670Y109806D01*
X47535Y109299D01*
X48420Y108828D01*
X49325Y108396D01*
X50248Y108003D01*
X51186Y107649D01*
X52138Y107335D01*
X53103Y107061D01*
X54079Y106829D01*
X55063Y106639D01*
X56055Y106491D01*
X57052Y106384D01*
X58053Y106321D01*
X59055Y106299D01*
X60058Y106321D01*
X61058Y106384D01*
X62056Y106491D01*
X63047Y106639D01*
X64032Y106829D01*
X65007Y107061D01*
X65972Y107335D01*
X66925Y107649D01*
X67863Y108003D01*
X68785Y108396D01*
X69690Y108828D01*
X70575Y109299D01*
X71440Y109806D01*
X72283Y110350D01*
X73102Y110929D01*
X73895Y111542D01*
X74662Y112189D01*
X75400Y112867D01*
X76109Y113576D01*
X76788Y114315D01*
X77434Y115082D01*
X78047Y115875D01*
X78626Y116694D01*
X79170Y117536D01*
X79677Y118401D01*
X80148Y119287D01*
X80580Y120191D01*
X80974Y121114D01*
X81328Y122052D01*
X81642Y123004D01*
X81915Y123969D01*
X82147Y124945D01*
X82337Y125929D01*
X82486Y126921D01*
X82592Y127918D01*
X82656Y128919D01*
X82677Y129921D01*
X88480Y88576D02*
X86481D01*
Y87576D01*
X86814Y87243D01*
X87480D01*
X87814Y87576D01*
Y88576D01*
Y87909D02*
X88480Y87243D01*
X86814Y86576D02*
X86481Y86243D01*
Y85576D01*
X86814Y85243D01*
X87147D01*
X87480Y85576D01*
Y85910D01*
Y85576D01*
X87814Y85243D01*
X88147D01*
X88480Y85576D01*
Y86243D01*
X88147Y86576D01*
X145891Y65433D02*
X144558D01*
X144225Y65766D01*
Y66433D01*
X144558Y66766D01*
X145891D01*
X146224Y66433D01*
Y65766D01*
X145558Y66099D02*
X146224Y65433D01*
Y65766D02*
X145891Y65433D01*
X146224Y63767D02*
X144225D01*
X145224Y64767D01*
Y63434D01*
X145749Y89067D02*
X144416D01*
X144083Y89400D01*
Y90066D01*
X144416Y90400D01*
X145749D01*
X146082Y90066D01*
Y89400D01*
X145416Y89733D02*
X146082Y89067D01*
Y89400D02*
X145749Y89067D01*
X144416Y88400D02*
X144083Y88067D01*
Y87401D01*
X144416Y87068D01*
X144749D01*
X145083Y87401D01*
Y87734D01*
Y87401D01*
X145416Y87068D01*
X145749D01*
X146082Y87401D01*
Y88067D01*
X145749Y88400D01*
X145371Y112651D02*
X144038D01*
X143705Y112984D01*
Y113651D01*
X144038Y113984D01*
X145371D01*
X145704Y113651D01*
Y112984D01*
X145038Y113318D02*
X145704Y112651D01*
Y112984D02*
X145371Y112651D01*
X145704Y111985D02*
Y111318D01*
Y111652D01*
X143705D01*
X144038Y111985D01*
X100494Y130721D02*
X102493Y129388D01*
X100494D02*
X102493Y130721D01*
Y127389D02*
Y128721D01*
X101160Y127389D01*
X100827D01*
X100494Y127722D01*
Y128388D01*
X100827Y128721D01*
X127561Y145977D02*
X129227D01*
X129560Y145643D01*
Y144977D01*
X129227Y144644D01*
X127561D01*
X129560Y142645D02*
Y143977D01*
X128227Y142645D01*
X127894D01*
X127561Y142978D01*
Y143644D01*
X127894Y143977D01*
X170604Y115115D02*
X168605D01*
Y114115D01*
X168938Y113782D01*
X169604D01*
X169938Y114115D01*
Y115115D01*
Y114448D02*
X170604Y113782D01*
X168605Y111782D02*
Y113115D01*
X169604D01*
X169271Y112449D01*
Y112116D01*
X169604Y111782D01*
X170271D01*
X170604Y112116D01*
Y112782D01*
X170271Y113115D01*
X170604Y108261D02*
X168605D01*
Y107261D01*
X168938Y106928D01*
X169604D01*
X169938Y107261D01*
Y108261D01*
Y107594D02*
X170604Y106928D01*
X170271Y106261D02*
X170604Y105928D01*
Y105262D01*
X170271Y104928D01*
X168938D01*
X168605Y105262D01*
Y105928D01*
X168938Y106261D01*
X169271D01*
X169604Y105928D01*
Y104928D01*
X170604Y101909D02*
X168605D01*
Y100909D01*
X168938Y100576D01*
X169604D01*
X169938Y100909D01*
Y101909D01*
Y101242D02*
X170604Y100576D01*
Y99909D02*
Y99243D01*
Y99576D01*
X168605D01*
X168938Y99909D01*
Y98243D02*
X168605Y97910D01*
Y97243D01*
X168938Y96910D01*
X169271D01*
X169604Y97243D01*
Y97577D01*
Y97243D01*
X169938Y96910D01*
X170271D01*
X170604Y97243D01*
Y97910D01*
X170271Y98243D01*
X170604Y92217D02*
X168605D01*
Y91218D01*
X168938Y90884D01*
X169604D01*
X169938Y91218D01*
Y92217D01*
Y91551D02*
X170604Y90884D01*
X168605Y90218D02*
Y88885D01*
X168938D01*
X170271Y90218D01*
X170604D01*
X170604Y84889D02*
X168605D01*
Y83889D01*
X168938Y83556D01*
X169604D01*
X169938Y83889D01*
Y84889D01*
Y84223D02*
X170604Y83556D01*
Y82890D02*
Y82223D01*
Y82556D01*
X168605D01*
X168938Y82890D01*
Y81223D02*
X168605Y80890D01*
Y80224D01*
X168938Y79891D01*
X170271D01*
X170604Y80224D01*
Y80890D01*
X170271Y81223D01*
X168938D01*
X170604Y77696D02*
X168605D01*
Y76696D01*
X168938Y76363D01*
X169604D01*
X169938Y76696D01*
Y77696D01*
Y77030D02*
X170604Y76363D01*
Y75697D02*
Y75030D01*
Y75363D01*
X168605D01*
X168938Y75697D01*
X170604Y73031D02*
X168605D01*
X169604Y74031D01*
Y72698D01*
X170604Y67906D02*
X168605D01*
Y66907D01*
X168938Y66573D01*
X169604D01*
X169938Y66907D01*
Y67906D01*
Y67240D02*
X170604Y66573D01*
X168938Y65907D02*
X168605Y65574D01*
Y64907D01*
X168938Y64574D01*
X169271D01*
X169604Y64907D01*
X169938Y64574D01*
X170271D01*
X170604Y64907D01*
Y65574D01*
X170271Y65907D01*
X169938D01*
X169604Y65574D01*
X169271Y65907D01*
X168938D01*
X169604Y65574D02*
Y64907D01*
X170604Y60870D02*
X168605D01*
Y59870D01*
X168938Y59537D01*
X169604D01*
X169938Y59870D01*
Y60870D01*
Y60204D02*
X170604Y59537D01*
Y58871D02*
Y58204D01*
Y58538D01*
X168605D01*
X168938Y58871D01*
X170604Y57205D02*
Y56538D01*
Y56871D01*
X168605D01*
X168938Y57205D01*
X170604Y53921D02*
X168605D01*
Y52921D01*
X168938Y52588D01*
X169604D01*
X169938Y52921D01*
Y53921D01*
Y53254D02*
X170604Y52588D01*
Y51921D02*
Y51255D01*
Y51588D01*
X168605D01*
X168938Y51921D01*
X168605Y48922D02*
Y50255D01*
X169604D01*
X169271Y49589D01*
Y49255D01*
X169604Y48922D01*
X170271D01*
X170604Y49255D01*
Y49922D01*
X170271Y50255D01*
X68217Y50639D02*
X67884Y50972D01*
Y51639D01*
X68217Y51972D01*
X68550D01*
X68884Y51639D01*
Y50972D01*
X69217Y50639D01*
X69550D01*
X69883Y50972D01*
Y51639D01*
X69550Y51972D01*
X67884Y49973D02*
X69883D01*
X69217Y49306D01*
X69883Y48640D01*
X67884D01*
X68217Y47973D02*
X67884Y47640D01*
Y46974D01*
X68217Y46641D01*
X68550D01*
X68884Y46974D01*
Y47307D01*
Y46974D01*
X69217Y46641D01*
X69550D01*
X69883Y46974D01*
Y47640D01*
X69550Y47973D01*
X98804Y48202D02*
X100803D01*
Y47202D01*
X100470Y46869D01*
X99137D01*
X98804Y47202D01*
Y48202D01*
X100803Y45202D02*
X98804D01*
X99803Y46202D01*
Y44869D01*
X143150Y139230D02*
X142816Y139564D01*
Y140230D01*
X143150Y140563D01*
X144483D01*
X144816Y140230D01*
Y139564D01*
X144483Y139230D01*
X142816Y137231D02*
Y138564D01*
X143816D01*
X143483Y137898D01*
Y137564D01*
X143816Y137231D01*
X144483D01*
X144816Y137564D01*
Y138231D01*
X144483Y138564D01*
X173548Y33024D02*
X175214D01*
X175547Y32691D01*
Y32025D01*
X175214Y31692D01*
X173548D01*
X175214Y31025D02*
X175547Y30692D01*
Y30025D01*
X175214Y29692D01*
X173881D01*
X173548Y30025D01*
Y30692D01*
X173881Y31025D01*
X174214D01*
X174547Y30692D01*
Y29692D01*
X242437Y70053D02*
X242104Y69720D01*
X241437D01*
X241104Y70053D01*
Y71386D01*
X241437Y71719D01*
X242104D01*
X242437Y71386D01*
X244436Y71719D02*
X243103D01*
X244436Y70386D01*
Y70053D01*
X244103Y69720D01*
X243437D01*
X243103Y70053D01*
X245103D02*
X245436Y69720D01*
X246102D01*
X246435Y70053D01*
Y71386D01*
X246102Y71719D01*
X245436D01*
X245103Y71386D01*
Y70053D01*
X264599Y82846D02*
Y81180D01*
X264266Y80847D01*
X263599D01*
X263266Y81180D01*
Y82846D01*
X262600Y80847D02*
X261933D01*
X262266D01*
Y82846D01*
X262600Y82513D01*
X260934D02*
X260600Y82846D01*
X259934D01*
X259601Y82513D01*
Y81180D01*
X259934Y80847D01*
X260600D01*
X260934Y81180D01*
Y82513D01*
X110062Y65824D02*
X109729Y66158D01*
Y66824D01*
X110062Y67157D01*
X111395D01*
X111728Y66824D01*
Y66158D01*
X111395Y65824D01*
X111728Y65158D02*
Y64491D01*
Y64825D01*
X109729D01*
X110062Y65158D01*
X111395Y63492D02*
X111728Y63159D01*
Y62492D01*
X111395Y62159D01*
X110062D01*
X109729Y62492D01*
Y63159D01*
X110062Y63492D01*
X110395D01*
X110728Y63159D01*
Y62159D01*
X190450Y54595D02*
X188450D01*
Y53595D01*
X188784Y53262D01*
X189450D01*
X189783Y53595D01*
Y54595D01*
Y53928D02*
X190450Y53262D01*
Y52595D02*
Y51929D01*
Y52262D01*
X188450D01*
X188784Y52595D01*
X190450Y49596D02*
Y50929D01*
X189117Y49596D01*
X188784D01*
X188450Y49930D01*
Y50596D01*
X188784Y50929D01*
X66208Y68489D02*
X64209D01*
Y67489D01*
X64542Y67156D01*
X65208D01*
X65542Y67489D01*
Y68489D01*
Y67823D02*
X66208Y67156D01*
X64209Y65157D02*
X64542Y65823D01*
X65208Y66490D01*
X65875D01*
X66208Y66157D01*
Y65490D01*
X65875Y65157D01*
X65542D01*
X65208Y65490D01*
Y66490D01*
X66354Y76469D02*
X64355D01*
Y75470D01*
X64688Y75136D01*
X65354D01*
X65688Y75470D01*
Y76469D01*
Y75803D02*
X66354Y75136D01*
Y73470D02*
X64355D01*
X65354Y74470D01*
Y73137D01*
X65875Y81928D02*
X64542D01*
X64209Y82261D01*
Y82927D01*
X64542Y83261D01*
X65875D01*
X66208Y82927D01*
Y82261D01*
X65542Y82594D02*
X66208Y81928D01*
Y82261D02*
X65875Y81928D01*
X66208Y79928D02*
Y81261D01*
X64875Y79928D01*
X64542D01*
X64209Y80262D01*
Y80928D01*
X64542Y81261D01*
X50969Y102234D02*
X52968D01*
Y100901D01*
X51302Y98902D02*
X50969Y99235D01*
Y99902D01*
X51302Y100235D01*
X51635D01*
X51968Y99902D01*
Y99235D01*
X52302Y98902D01*
X52635D01*
X52968Y99235D01*
Y99902D01*
X52635Y100235D01*
X52968Y98235D02*
Y97569D01*
Y97902D01*
X50969D01*
X51302Y98235D01*
X219088Y51379D02*
X219421Y51046D01*
Y50379D01*
X219088Y50046D01*
X217755D01*
X217422Y50379D01*
Y51046D01*
X217755Y51379D01*
X217422Y52046D02*
Y52712D01*
Y52379D01*
X219421D01*
X219088Y52046D01*
Y53712D02*
X219421Y54045D01*
Y54711D01*
X219088Y55045D01*
X218754D01*
X218421Y54711D01*
X218088Y55045D01*
X217755D01*
X217422Y54711D01*
Y54045D01*
X217755Y53712D01*
X218088D01*
X218421Y54045D01*
X218754Y53712D01*
X219088D01*
X218421Y54045D02*
Y54711D01*
X89355Y122396D02*
X91354D01*
Y121396D01*
X91021Y121063D01*
X90688D01*
X90354Y121396D01*
Y122396D01*
Y121396D01*
X90021Y121063D01*
X89688D01*
X89355Y121396D01*
Y122396D01*
X91354Y120396D02*
Y119730D01*
Y120063D01*
X89355D01*
X89688Y120396D01*
X98804Y38969D02*
X100803D01*
Y37970D01*
X100470Y37636D01*
X99137D01*
X98804Y37970D01*
Y38969D01*
X100803Y35637D02*
Y36970D01*
X99470Y35637D01*
X99137D01*
X98804Y35970D01*
Y36637D01*
X99137Y36970D01*
X67898Y9540D02*
X69564D01*
X69897Y9207D01*
Y8540D01*
X69564Y8207D01*
X67898D01*
X68231Y7541D02*
X67898Y7208D01*
Y6541D01*
X68231Y6208D01*
X68564D01*
X68898Y6541D01*
X69231Y6208D01*
X69564D01*
X69897Y6541D01*
Y7208D01*
X69564Y7541D01*
X69231D01*
X68898Y7208D01*
X68564Y7541D01*
X68231D01*
X68898Y7208D02*
Y6541D01*
X122032Y9540D02*
X123698D01*
X124031Y9207D01*
Y8540D01*
X123698Y8207D01*
X122032D01*
Y7541D02*
Y6208D01*
X122365D01*
X123698Y7541D01*
X124031D01*
X22956Y18883D02*
X22622Y19216D01*
Y19883D01*
X22956Y20216D01*
X24288D01*
X24622Y19883D01*
Y19216D01*
X24288Y18883D01*
X24622Y18216D02*
Y17550D01*
Y17883D01*
X22622D01*
X22956Y18216D01*
X22622Y16550D02*
Y15217D01*
X22956D01*
X24288Y16550D01*
X24622D01*
X77089Y28135D02*
X76756Y28468D01*
Y29135D01*
X77089Y29468D01*
X78422D01*
X78756Y29135D01*
Y28468D01*
X78422Y28135D01*
X78756Y27468D02*
Y26802D01*
Y27135D01*
X76756D01*
X77089Y27468D01*
X76756Y24469D02*
X77089Y25136D01*
X77756Y25802D01*
X78422D01*
X78756Y25469D01*
Y24803D01*
X78422Y24469D01*
X78089D01*
X77756Y24803D01*
Y25802D01*
X78422Y16550D02*
X78756Y16217D01*
Y15551D01*
X78422Y15217D01*
X77090D01*
X76756Y15551D01*
Y16217D01*
X77090Y16550D01*
X76756Y17217D02*
Y17883D01*
Y17550D01*
X78756D01*
X78422Y17217D01*
X78756Y20216D02*
Y18883D01*
X77756D01*
X78089Y19549D01*
Y19883D01*
X77756Y20216D01*
X77090D01*
X76756Y19883D01*
Y19216D01*
X77090Y18883D01*
X22956Y28135D02*
X22622Y28468D01*
Y29135D01*
X22956Y29468D01*
X24288D01*
X24622Y29135D01*
Y28468D01*
X24288Y28135D01*
X24622Y27468D02*
Y26802D01*
Y27135D01*
X22622D01*
X22956Y27468D01*
X24622Y24803D02*
X22622D01*
X23622Y25802D01*
Y24469D01*
X224769Y106548D02*
X222770D01*
Y105548D01*
X223103Y105215D01*
X223770D01*
X224103Y105548D01*
Y106548D01*
Y105882D02*
X224769Y105215D01*
Y103216D02*
Y104549D01*
X223436Y103216D01*
X223103D01*
X222770Y103549D01*
Y104215D01*
X223103Y104549D01*
X232840Y106215D02*
X230841D01*
Y105215D01*
X231174Y104882D01*
X231840D01*
X232174Y105215D01*
Y106215D01*
Y105548D02*
X232840Y104882D01*
Y104215D02*
Y103549D01*
Y103882D01*
X230841D01*
X231174Y104215D01*
X85948Y110418D02*
X85615Y110751D01*
Y111418D01*
X85948Y111751D01*
X87281D01*
X87614Y111418D01*
Y110751D01*
X87281Y110418D01*
X87614Y109752D02*
Y109085D01*
Y109419D01*
X85615D01*
X85948Y109752D01*
Y108086D02*
X85615Y107752D01*
Y107086D01*
X85948Y106753D01*
X86281D01*
X86614Y107086D01*
Y107419D01*
Y107086D01*
X86947Y106753D01*
X87281D01*
X87614Y107086D01*
Y107752D01*
X87281Y108086D01*
X113330Y55681D02*
X112996Y56015D01*
Y56681D01*
X113330Y57014D01*
X114663D01*
X114996Y56681D01*
Y56015D01*
X114663Y55681D01*
X114996Y55015D02*
Y54349D01*
Y54682D01*
X112996D01*
X113330Y55015D01*
X114996Y52016D02*
Y53349D01*
X113663Y52016D01*
X113330D01*
X112996Y52349D01*
Y53016D01*
X113330Y53349D01*
X114329Y104672D02*
X113996Y105005D01*
Y105671D01*
X114329Y106005D01*
X115662D01*
X115995Y105671D01*
Y105005D01*
X115662Y104672D01*
X115995Y104005D02*
Y103339D01*
Y103672D01*
X113996D01*
X114329Y104005D01*
X115995Y102339D02*
Y101673D01*
Y102006D01*
X113996D01*
X114329Y102339D01*
X130042Y71397D02*
X129709Y71730D01*
Y72396D01*
X130042Y72730D01*
X131375D01*
X131708Y72396D01*
Y71730D01*
X131375Y71397D01*
X131708Y70730D02*
Y70064D01*
Y70397D01*
X129709D01*
X130042Y70730D01*
Y69064D02*
X129709Y68731D01*
Y68065D01*
X130042Y67731D01*
X131375D01*
X131708Y68065D01*
Y68731D01*
X131375Y69064D01*
X130042D01*
X205830Y105215D02*
X205496Y105548D01*
Y106215D01*
X205830Y106548D01*
X207162D01*
X207496Y106215D01*
Y105548D01*
X207162Y105215D01*
Y104549D02*
X207496Y104215D01*
Y103549D01*
X207162Y103216D01*
X205830D01*
X205496Y103549D01*
Y104215D01*
X205830Y104549D01*
X206163D01*
X206496Y104215D01*
Y103216D01*
X130042Y77779D02*
X129709Y78113D01*
Y78779D01*
X130042Y79112D01*
X131375D01*
X131708Y78779D01*
Y78113D01*
X131375Y77779D01*
X130042Y77113D02*
X129709Y76780D01*
Y76113D01*
X130042Y75780D01*
X130375D01*
X130709Y76113D01*
X131042Y75780D01*
X131375D01*
X131708Y76113D01*
Y76780D01*
X131375Y77113D01*
X131042D01*
X130709Y76780D01*
X130375Y77113D01*
X130042D01*
X130709Y76780D02*
Y76113D01*
X112030Y90188D02*
X111697Y90521D01*
Y91188D01*
X112030Y91521D01*
X113363D01*
X113697Y91188D01*
Y90521D01*
X113363Y90188D01*
X111697Y89522D02*
Y88189D01*
X112030D01*
X113363Y89522D01*
X113697D01*
X133192Y104172D02*
X132859Y104505D01*
Y105172D01*
X133192Y105505D01*
X134525D01*
X134858Y105172D01*
Y104505D01*
X134525Y104172D01*
X132859Y102173D02*
X133192Y102839D01*
X133858Y103505D01*
X134525D01*
X134858Y103172D01*
Y102506D01*
X134525Y102173D01*
X134192D01*
X133858Y102506D01*
Y103505D01*
X197819Y75507D02*
X199819Y74174D01*
X197819D02*
X199819Y75507D01*
Y73507D02*
Y72841D01*
Y73174D01*
X197819D01*
X198152Y73507D01*
X292148Y138106D02*
X291815Y138439D01*
Y139106D01*
X292148Y139439D01*
X292482D01*
X292815Y139106D01*
Y138439D01*
X293148Y138106D01*
X293481D01*
X293815Y138439D01*
Y139106D01*
X293481Y139439D01*
X291815Y137440D02*
X293815D01*
Y136440D01*
X293481Y136107D01*
X292148D01*
X291815Y136440D01*
Y137440D01*
X293815Y135440D02*
Y134774D01*
Y135107D01*
X291815D01*
X292148Y135440D01*
X234298Y141793D02*
X234631Y141460D01*
Y140793D01*
X234298Y140460D01*
X232965D01*
X232632Y140793D01*
Y141460D01*
X232965Y141793D01*
X232632Y143459D02*
X234631D01*
X233631Y142459D01*
Y143792D01*
X215725Y105215D02*
X216059Y105548D01*
Y106215D01*
X215725Y106548D01*
X214393D01*
X214059Y106215D01*
Y105548D01*
X214393Y105215D01*
X215725Y104549D02*
X216059Y104215D01*
Y103549D01*
X215725Y103216D01*
X215392D01*
X215059Y103549D01*
Y103882D01*
Y103549D01*
X214726Y103216D01*
X214393D01*
X214059Y103549D01*
Y104215D01*
X214393Y104549D01*
X227680Y79566D02*
X227347Y79899D01*
Y80565D01*
X227680Y80898D01*
X229013D01*
X229346Y80565D01*
Y79899D01*
X229013Y79566D01*
X229346Y77566D02*
Y78899D01*
X228013Y77566D01*
X227680D01*
X227347Y77899D01*
Y78566D01*
X227680Y78899D01*
X227778Y68898D02*
X227445Y69231D01*
Y69897D01*
X227778Y70231D01*
X229111D01*
X229445Y69897D01*
Y69231D01*
X229111Y68898D01*
X229445Y68231D02*
Y67565D01*
Y67898D01*
X227445D01*
X227778Y68231D01*
D111*
X7874Y84646D02*
X7610Y85630D01*
X6890Y86351D01*
X5906Y86614D01*
X5906Y68898D02*
X6890Y69161D01*
X7610Y69882D01*
X7874Y70866D01*
X1969Y86614D02*
X5906D01*
X7874Y70866D02*
Y84646D01*
X1969Y68898D02*
X5906D01*
X39370Y55118D02*
X49213D01*
Y102362D01*
X39370D02*
X49213D01*
X1969D02*
X11811D01*
X1969Y55118D02*
Y102362D01*
Y55118D02*
X11811D01*
M02*
